<?xml version="1.0" encoding="utf-8"?>
<!-- Generator: Adobe Illustrator 23.0.2, SVG Export Plug-In . SVG Version: 6.00 Build 0)  -->
<svg version="1.1" id="Layer_1" xmlns="http://www.w3.org/2000/svg" xmlns:xlink="http://www.w3.org/1999/xlink" x="0px" y="0px"
	 width="262.9924px" height="178.0763px" viewBox="0 0 262.9924 178.0763" enable-background="new 0 0 262.9924 178.0763"
	 xml:space="preserve">
<circle fill="#DAA628" stroke="#FFFFFF" stroke-width="2" stroke-miterlimit="10" cx="75.5159" cy="103.2876" r="68.5988"/>
<circle fill="#DAA628" stroke="#FFFFFF" stroke-width="1.5" stroke-miterlimit="10" cx="76.3165" cy="119.046" r="51.9162"/>
<circle fill="#DAA628" stroke="#FFFFFF" stroke-width="1.5" stroke-miterlimit="10" cx="76.0745" cy="140.3007" r="29.6615"/>
<line fill="none" stroke="#58595B" stroke-width="1.5" stroke-miterlimit="10" x1="102.4319" y1="61.6888" x2="179.0406" y2="61.6888"/>
<line fill="#58595B" stroke="#58595B" stroke-width="1.5" stroke-miterlimit="10" x1="83.7969" y1="129.7238" x2="155.3435" y2="129.7238"/>
<g>
	<path fill="#414042" d="M194.6205,66.6787v2.9428h-9.1102c0.0977-1.1115,0.3965-2.1686,0.8964-3.1711s1.4714-2.3189,2.9146-3.9491
		c1.1425-1.2994,1.8453-2.178,2.1084-2.6365c0.3909-0.668,0.5863-1.3398,0.5863-2.0163c0-0.7207-0.1616-1.2656-0.4848-1.633
		c-0.3232-0.3683-0.7479-0.5525-1.2741-0.5525c-1.15,0-1.7702,0.8607-1.8604,2.582l-2.582-0.3157
		c0.1578-1.6837,0.6258-2.9202,1.4037-3.7095s1.8134-1.1839,3.1063-1.1839c1.4206,0,2.4918,0.4623,3.2134,1.3859
		c0.7216,0.9236,1.0824,1.9825,1.0824,3.1767c0,0.6765-0.0921,1.3314-0.2762,1.9656c-0.1842,0.6352-0.4679,1.2731-0.8513,1.9158
		c-0.3833,0.6417-1.0223,1.462-1.9167,2.4608c-0.8344,0.9396-1.3624,1.5588-1.5841,1.8594s-0.4003,0.5929-0.5356,0.8785H194.6205z"
		/>
	<path fill="#414042" d="M205.1739,57.14l-2.5143,0.3382c-0.1203-1.2252-0.6145-1.8378-1.4817-1.8378
		c-0.5656,0-1.0345,0.3082-1.4084,0.9245c-0.373,0.6164-0.6089,1.8604-0.7066,3.732c0.3242-0.466,0.685-0.8156,1.0843-1.0486
		c0.3993-0.233,0.84-0.3495,1.321-0.3495c1.0617,0,1.9882,0.4942,2.7793,1.4808c0.7902,0.9875,1.1858,2.3001,1.1858,3.9369
		c0,1.742-0.4181,3.1091-1.2534,4.1003c-0.8353,0.9913-1.8698,1.4864-3.1044,1.4864c-1.3549,0-2.4777-0.6446-3.3693-1.9318
		c-0.8917-1.2891-1.338-3.4238-1.338-6.4061c0-3.0273,0.4632-5.2053,1.3887-6.5348s2.115-1.9947,3.5676-1.9947
		c1.0007,0,1.8453,0.3392,2.5341,1.0176C204.5472,54.7319,204.986,55.7607,205.1739,57.14z M199.2883,64.0572
		c0,1.0429,0.1945,1.8406,0.5825,2.3922s0.8315,0.8268,1.3286,0.8268c0.483,0,0.8842-0.2283,1.2045-0.6859
		c0.3204-0.4585,0.4811-1.2083,0.4811-2.2512c0-1.0805-0.1738-1.8679-0.5205-2.364c-0.3467-0.4942-0.7761-0.7423-1.2891-0.7423
		c-0.498,0-0.9198,0.2368-1.2666,0.7094C199.4612,62.4149,199.2883,63.1195,199.2883,64.0572z"/>
	<path fill="#414042" d="M211.2962,53.0359c1.3154,0,2.379,0.6258,3.1908,1.8763c0.8118,1.2506,1.2177,3.4379,1.2177,6.563
		c0,3.1175-0.4059,5.3011-1.2177,6.5517c-0.8118,1.2515-1.8716,1.8763-3.1796,1.8763c-1.3154,0-2.379-0.6192-3.1908-1.8594
		c-0.8118-1.2393-1.2177-3.4398-1.2177-6.6024c0-3.1025,0.4059-5.2786,1.2177-6.5292
		C208.9285,53.6617,209.9883,53.0359,211.2962,53.0359z M211.3018,55.663c-0.513,0-0.9217,0.3382-1.2271,1.0138
		c-0.3063,0.6756-0.4585,2.2757-0.4585,4.7985c0,2.5228,0.1522,4.121,0.4585,4.7928c0.3054,0.6718,0.7141,1.0082,1.2271,1.0082
		c0.5205,0,0.9311-0.3382,1.2327-1.0138s0.4529-2.271,0.4529-4.7872c0-2.5228-0.1513-4.1229-0.4529-4.7985
		S211.8224,55.663,211.3018,55.663z"/>
	<path fill="#414042" d="M217.9259,66.4532h2.5932v2.2663c0,1.2854-0.1503,2.24-0.451,2.8639
		c-0.3683,0.7742-0.9847,1.3492-1.8491,1.7251l-0.5074-1.3079c0.5111-0.2105,0.8794-0.4942,1.1049-0.8513
		c0.2255-0.357,0.3458-0.8663,0.3608-1.5278h-1.2515V66.4532z"/>
	<path fill="#414042" d="M222.6952,56.2606v-2.9428h8.8847v2.3001c-0.7291,0.8795-1.4676,2.1291-2.2155,3.7489
		c-0.7479,1.6198-1.3267,3.3562-1.7363,5.209c-0.4097,1.8529-0.6145,3.5347-0.6145,5.0456h-2.5031
		c0.0601-2.3452,0.451-4.6866,1.1726-7.0243c0.7216-2.3377,1.695-4.4499,2.9202-6.3365H222.6952z"/>
	<path fill="#414042" d="M233.2721,65.3708l2.5932-0.3382c0.0677,0.7216,0.2894,1.2891,0.6652,1.7025
		c0.3758,0.4134,0.7892,0.6201,1.2402,0.6201c0.5337,0,0.9922-0.264,1.3755-0.793s0.575-1.3417,0.575-2.4373
		c0-1.0354-0.1898-1.8002-0.5713-2.2954c-0.3796-0.4952-0.8625-0.7432-1.4507-0.7432c-0.746,0-1.415,0.4021-2.0107,1.2064
		l-2.1122-0.3721l1.3304-8.6028h6.8665v2.9653h-4.884l-0.4228,2.8084c0.5863-0.3542,1.182-0.5309,1.7833-0.5309
		c1.0692,0,1.975,0.4209,2.721,1.2628c0.9415,1.0749,1.4113,2.4918,1.4113,4.2507c0,1.4507-0.4003,2.7849-1.2008,4.0026
		s-1.9449,1.8265-3.4332,1.8265c-1.2027,0-2.208-0.3927-3.0161-1.1782S233.4375,66.8215,233.2721,65.3708z"/>
	<path fill="#414042" d="M248.8542,69.6215v-3.3261h-5.5473v-2.7737l5.8743-10.4857h2.1873v10.4745h1.68v2.7849h-1.68v3.3261
		H248.8542z M248.8542,63.5104v-5.6431l-3.1119,5.6431H248.8542z"/>
</g>
<g>
	<path fill="#414042" d="M163.2444,132.7984l2.5143-0.3721c0.0677,0.778,0.2828,1.3727,0.6445,1.7843
		c0.3617,0.4115,0.7874,0.6173,1.2778,0.6173c0.5356,0,0.9875-0.2443,1.3568-0.7329c0.3693-0.4886,0.5544-1.1651,0.5544-2.0295
		c0-0.8043-0.1776-1.4357-0.5318-1.8942c-0.3552-0.4585-0.7846-0.6878-1.2901-0.6878c-0.3326,0-0.7282,0.0789-1.1886,0.2368
		l0.2819-2.582c0.6727,0.015,1.2055-0.1644,1.5982-0.5393c0.3852-0.3749,0.5778-0.9039,0.5778-1.586
		c0-0.5694-0.14-1.0148-0.4191-1.338c-0.2791-0.3213-0.637-0.4829-1.0749-0.4829c-0.4369,0-0.8165,0.186-1.1369,0.5581
		c-0.3204,0.3721-0.5111,0.9227-0.5713,1.6518l-2.4016-0.4961c0.248-1.5108,0.7338-2.6083,1.4563-3.2923
		c0.7225-0.684,1.6339-1.026,2.7323-1.026c1.2346,0,2.2146,0.4388,2.9409,1.3173c0.7263,0.8785,1.0899,1.85,1.0899,2.9155
		c0,0.7207-0.1635,1.3699-0.4905,1.9478c-0.327,0.5778-0.8174,1.0852-1.4714,1.5202c0.7592,0.2029,1.3774,0.6502,1.8547,1.3417
		c0.4773,0.6915,0.716,1.556,0.716,2.5932c0,1.5108-0.4501,2.7605-1.3492,3.7489c-0.8992,0.9884-1.9694,1.4827-3.2115,1.4827
		c-1.1895,0-2.1958-0.4162-3.0198-1.2487C163.8598,135.3738,163.3797,134.2379,163.2444,132.7984z"/>
	<path fill="#414042" d="M174.3615,134.0049h2.5933v2.2663c0,1.2853-0.1503,2.24-0.451,2.8638
		c-0.3683,0.7742-0.9847,1.3492-1.8491,1.7251l-0.5074-1.3079c0.5111-0.2105,0.8795-0.4942,1.1049-0.8513
		s0.3458-0.8663,0.3608-1.5278h-1.2515V134.0049z"/>
	<path fill="#414042" d="M179.0406,132.7984l2.5143-0.3721c0.0677,0.778,0.2828,1.3727,0.6446,1.7843
		c0.3617,0.4115,0.7874,0.6173,1.2778,0.6173c0.5356,0,0.9875-0.2443,1.3568-0.7329c0.3693-0.4886,0.5544-1.1651,0.5544-2.0295
		c0-0.8043-0.1776-1.4357-0.5318-1.8942c-0.3552-0.4585-0.7845-0.6878-1.2901-0.6878c-0.3326,0-0.7282,0.0789-1.1886,0.2368
		l0.2819-2.582c0.6727,0.015,1.2055-0.1644,1.5982-0.5393c0.3852-0.3749,0.5778-0.9039,0.5778-1.586
		c0-0.5694-0.14-1.0148-0.4191-1.338c-0.2791-0.3213-0.637-0.4829-1.0749-0.4829c-0.4369,0-0.8165,0.186-1.1369,0.5581
		c-0.3204,0.3721-0.5111,0.9227-0.5713,1.6518l-2.4016-0.4961c0.248-1.5108,0.7338-2.6083,1.4564-3.2923
		c0.7225-0.684,1.6339-1.026,2.7323-1.026c1.2346,0,2.2146,0.4388,2.9409,1.3173c0.7263,0.8785,1.0899,1.85,1.0899,2.9155
		c0,0.7207-0.1635,1.3699-0.4905,1.9478c-0.327,0.5778-0.8174,1.0852-1.4714,1.5202c0.7592,0.2029,1.3774,0.6502,1.8547,1.3417
		c0.4773,0.6915,0.716,1.556,0.716,2.5932c0,1.5108-0.4501,2.7605-1.3492,3.7489c-0.8992,0.9884-1.9694,1.4827-3.2115,1.4827
		c-1.1895,0-2.1958-0.4162-3.0198-1.2487C179.6561,135.3738,179.1759,134.2379,179.0406,132.7984z"/>
	<path fill="#414042" d="M194.758,137.1731v-3.3261h-5.5473v-2.7736l5.8743-10.4857h2.1873v10.4745h1.68v2.7849h-1.68v3.3261
		H194.758z M194.758,131.0621v-5.6431l-3.1119,5.6431H194.758z"/>
	<path fill="#414042" d="M200.2376,132.9225l2.5932-0.3382c0.0677,0.7216,0.2894,1.2891,0.6652,1.7025
		c0.3758,0.4134,0.7893,0.6201,1.2402,0.6201c0.5337,0,0.9922-0.264,1.3755-0.793c0.3834-0.529,0.575-1.3417,0.575-2.4373
		c0-1.0354-0.1898-1.8002-0.5703-2.2954c-0.3805-0.4951-0.8644-0.7432-1.4516-0.7432c-0.7451,0-1.416,0.4021-2.0107,1.2064
		l-2.1122-0.3721l1.3304-8.6028h6.8665v2.9653h-4.8839l-0.4228,2.8084c0.5872-0.3542,1.182-0.5309,1.7843-0.5309
		c1.0683,0,1.975,0.4209,2.7201,1.2628c0.9405,1.0749,1.4113,2.4918,1.4113,4.2507c0,1.4507-0.4003,2.7849-1.2008,4.0026
		c-0.8005,1.2177-1.9449,1.8265-3.4332,1.8265c-1.2027,0-2.208-0.3927-3.0161-1.1782S200.403,134.3732,200.2376,132.9225z"/>
</g>
<line fill="none" stroke="#58595B" stroke-width="1.5" stroke-miterlimit="10" x1="91.5697" y1="95.7063" x2="169.2444" y2="95.7063"/>
<g>
	<path fill="#414042" d="M177.4148,99.1466l2.5932-0.3382c0.0677,0.7216,0.2894,1.2891,0.6652,1.7025
		c0.3758,0.4134,0.7893,0.6201,1.2402,0.6201c0.5337,0,0.9922-0.264,1.3755-0.793s0.575-1.3417,0.575-2.4373
		c0-1.0354-0.1898-1.8002-0.5703-2.2954c-0.3805-0.4952-0.8644-0.7432-1.4517-0.7432c-0.7451,0-1.4159,0.4021-2.0107,1.2064
		l-2.1122-0.3721l1.3304-8.6028h6.8665v2.9653h-4.8839l-0.4228,2.8084c0.5872-0.3542,1.182-0.5309,1.7843-0.5309
		c1.0683,0,1.975,0.4209,2.7201,1.2628c0.9405,1.0749,1.4113,2.4918,1.4113,4.2507c0,1.4507-0.4003,2.7849-1.2008,4.0026
		c-0.8005,1.2177-1.9449,1.8266-3.4332,1.8266c-1.2027,0-2.208-0.3927-3.0161-1.1782S177.5801,100.5973,177.4148,99.1466z"/>
	<path fill="#414042" d="M187.8103,99.0226l2.5143-0.3721c0.0677,0.778,0.2828,1.3727,0.6446,1.7843s0.7874,0.6173,1.2778,0.6173
		c0.5356,0,0.9875-0.2443,1.3568-0.7329c0.3693-0.4886,0.5544-1.1651,0.5544-2.0295c0-0.8043-0.1776-1.4357-0.5318-1.8942
		c-0.3552-0.4585-0.7845-0.6878-1.2901-0.6878c-0.3326,0-0.7282,0.0789-1.1886,0.2368l0.2819-2.582
		c0.6727,0.015,1.2055-0.1644,1.5982-0.5393c0.3852-0.3749,0.5778-0.9039,0.5778-1.586c0-0.5694-0.14-1.0147-0.4191-1.338
		c-0.2791-0.3213-0.637-0.4829-1.0749-0.4829c-0.4369,0-0.8165,0.186-1.1369,0.5581c-0.3204,0.3721-0.5111,0.9227-0.5713,1.6518
		l-2.4016-0.4961c0.248-1.5108,0.7338-2.6083,1.4564-3.2923c0.7225-0.684,1.6339-1.026,2.7323-1.026
		c1.2346,0,2.2146,0.4388,2.9409,1.3173c0.7263,0.8785,1.0899,1.85,1.0899,2.9155c0,0.7207-0.1635,1.3699-0.4905,1.9478
		c-0.327,0.5778-0.8174,1.0852-1.4714,1.5202c0.7592,0.2029,1.3774,0.6502,1.8547,1.3417c0.4773,0.6915,0.716,1.5559,0.716,2.5932
		c0,1.5108-0.4501,2.7605-1.3492,3.7489s-1.9694,1.4827-3.2115,1.4827c-1.1895,0-2.1958-0.4162-3.0198-1.2487
		C188.4257,101.598,187.9456,100.462,187.8103,99.0226z"/>
	<path fill="#414042" d="M198.9274,100.229h2.5933v2.2663c0,1.2853-0.1503,2.24-0.451,2.8638
		c-0.3683,0.7742-0.9847,1.3492-1.8491,1.7251l-0.5074-1.3079c0.5111-0.2105,0.8795-0.4942,1.1049-0.8513
		s0.3458-0.8663,0.3608-1.5278h-1.2515V100.229z"/>
	<path fill="#414042" d="M212.48,100.4545v2.9428h-9.1102c0.0977-1.1115,0.3965-2.1686,0.8964-3.1711
		c0.4999-1.0025,1.4714-2.3189,2.9146-3.9491c1.1425-1.2994,1.8454-2.178,2.1084-2.6365c0.3909-0.668,0.5863-1.3398,0.5863-2.0163
		c0-0.7207-0.1616-1.2656-0.4848-1.633c-0.3232-0.3683-0.7479-0.5525-1.2741-0.5525c-1.1501,0-1.7702,0.8607-1.8604,2.582
		l-2.582-0.3157c0.1579-1.6837,0.6258-2.9202,1.4037-3.7095c0.778-0.7892,1.8134-1.1839,3.1063-1.1839
		c1.4207,0,2.4918,0.4623,3.2134,1.3859s1.0824,1.9825,1.0824,3.1767c0,0.6765-0.0921,1.3314-0.2762,1.9656
		c-0.1842,0.6352-0.4679,1.2731-0.8513,1.9158c-0.3833,0.6417-1.0223,1.462-1.9167,2.4608
		c-0.8344,0.9396-1.3624,1.5588-1.5841,1.8594s-0.4003,0.5929-0.5356,0.8785H212.48z"/>
	<path fill="#414042" d="M219.3239,103.3973v-3.3261h-5.5473v-2.7736l5.8743-10.4857h2.1873v10.4745h1.68v2.7849h-1.68v3.3261
		H219.3239z M219.3239,97.2862v-5.6431l-3.1119,5.6431H219.3239z"/>
	<path fill="#414042" d="M226.9937,94.4731c-0.6389-0.3307-1.1162-0.7799-1.4376-1.3502s-0.482-1.2562-0.482-2.0586
		c0-1.2976,0.3674-2.3311,1.104-3.0997s1.7288-1.1529,2.9766-1.1529c1.3229,0,2.3302,0.4106,3.0217,1.2318
		s1.0373,1.8209,1.0373,2.9982c0,0.8024-0.1654,1.4977-0.4998,2.0868c-0.3345,0.5882-0.793,1.0364-1.3718,1.3445
		c0.7742,0.3749,1.353,0.9029,1.7363,1.5832c0.3834,0.6793,0.575,1.5155,0.575,2.5068c0,1.0223-0.1879,1.9233-0.5675,2.7051
		c-0.3796,0.7808-0.9058,1.3784-1.5747,1.7908c-0.669,0.4134-1.4207,0.6201-2.255,0.6201c-1.3079,0-2.3865-0.4529-3.2397-1.3577
		c-0.8541-0.9048-1.2806-2.1244-1.2806-3.6569c0-0.9913,0.1945-1.8444,0.5835-2.5575
		C225.7084,95.393,226.2646,94.848,226.9937,94.4731z M227.2831,98.363c0,0.8851,0.1879,1.5682,0.5675,2.0483
		c0.3758,0.4801,0.8268,0.7197,1.3568,0.7197c0.5262,0,0.9697-0.2283,1.3267-0.6859c0.3608-0.4576,0.5374-1.1444,0.5374-2.0596
		c0-0.7874-0.1804-1.4103-0.5487-1.8679c-0.3645-0.4566-0.8156-0.6859-1.3492-0.6859c-0.5299,0-0.9772,0.2311-1.3417,0.6915
		C227.4673,96.9846,227.2831,97.5982,227.2831,98.363z M227.5312,91.2879c0,0.6427,0.1541,1.136,0.4585,1.4798
		s0.6878,0.5158,1.1538,0.5158c0.4736,0,0.8644-0.1719,1.1726-0.5158c0.3082-0.3439,0.4623-0.8372,0.4623-1.4798
		c0-0.6201-0.1503-1.1021-0.4548-1.446s-0.6878-0.5158-1.1463-0.5158c-0.4811,0-0.8757,0.1738-1.1839,0.5215
		C227.6853,90.1952,227.5312,90.6753,227.5312,91.2879z"/>
</g>
<g>
	<path fill="#414042" d="M28.6681,24.453V7.2733h1.8633v7.0547h7.3242V7.2733h1.8633V24.453h-1.8633v-8.0977h-7.3242v8.0977H28.6681
		z"/>
	<path fill="#414042" d="M41.9806,18.2304c0-2.1484,0.4512-3.7695,1.3535-4.8633s2.0449-1.6406,3.4277-1.6406
		c1.3594,0,2.4961,0.5469,3.4102,1.6406s1.3711,2.6719,1.3711,4.7344c0,2.2344-0.4492,3.8984-1.3477,4.9922
		s-2.043,1.6406-3.4336,1.6406c-1.3672,0-2.5059-0.5488-3.416-1.6465S41.9806,20.371,41.9806,18.2304z M43.7501,18.2245
		c0,1.6113,0.293,2.8105,0.8789,3.5957c0.5859,0.7871,1.3125,1.1797,2.1797,1.1797c0.8125,0,1.5098-0.3965,2.0918-1.1914
		c0.582-0.793,0.873-1.9883,0.873-3.584c0-1.6035-0.293-2.7979-0.8789-3.584s-1.3125-1.1797-2.1797-1.1797
		c-0.8203,0-1.5195,0.3955-2.0977,1.1855S43.7501,16.6288,43.7501,18.2245z"/>
	<path fill="#414042" d="M60.2618,24.453v-1.8281c-0.3984,0.7031-0.8672,1.2305-1.4063,1.582s-1.1484,0.5273-1.8281,0.5273
		c-0.8047,0-1.4922-0.2168-2.0625-0.6504s-0.9512-0.9824-1.1426-1.6465s-0.2871-1.5703-0.2871-2.7188v-7.7109h1.7227v6.9023
		c0,1.2813,0.0645,2.1387,0.1934,2.5723s0.3672,0.7813,0.7148,1.043s0.7441,0.3926,1.1895,0.3926
		c0.8281,0,1.5078-0.3398,2.0391-1.0195c0.4531-0.5859,0.6797-1.6602,0.6797-3.2227v-6.668h1.7344V24.453H60.2618z"/>
	<path fill="#414042" d="M63.8595,20.7265l1.7227-0.3281c0.1016,0.8789,0.3779,1.5322,0.8301,1.96s1.0527,0.6416,1.8008,0.6416
		s1.3262-0.1855,1.7363-0.5566c0.4082-0.3711,0.6133-0.8418,0.6133-1.4121c0-0.4922-0.1758-0.875-0.5273-1.1484
		c-0.2422-0.1875-0.8281-0.4219-1.7578-0.7031c-1.3438-0.4141-2.2422-0.7656-2.6953-1.0547s-0.8047-0.6758-1.0547-1.1602
		s-0.375-1.0352-0.375-1.6523c0-1.0625,0.3398-1.9258,1.0195-2.5898s1.6211-0.9961,2.8242-0.9961
		c0.7578,0,1.4238,0.1367,1.998,0.4102s1.0137,0.6406,1.3184,1.1016s0.5156,1.1211,0.6328,1.9805l-1.6875,0.2813
		c-0.1563-1.3594-0.8945-2.0391-2.2148-2.0391c-0.75,0-1.3086,0.1494-1.6758,0.4492s-0.5508,0.6826-0.5508,1.1494
		c0,0.46,0.1758,0.8213,0.5283,1.0859c0.2109,0.1553,0.8369,0.4043,1.8779,0.7471c1.4316,0.4541,2.3584,0.8164,2.7783,1.0859
		c0.4199,0.2705,0.7471,0.6377,0.9805,1.1035s0.3506,1.0195,0.3506,1.6611c0,1.1895-0.377,2.1523-1.1309,2.8877
		c-0.7539,0.7363-1.7832,1.1035-3.0879,1.1035C65.6681,24.7343,64.2501,23.3983,63.8595,20.7265z"/>
	<path fill="#414042" d="M74.3712,9.6991V7.2733h1.7227v2.4258H74.3712z M74.3712,24.453V12.0077h1.7227V24.453H74.3712z"/>
	<path fill="#414042" d="M78.7423,24.453V12.0077h1.5586v1.7578c0.374-0.6836,0.833-1.1943,1.375-1.5322
		s1.1631-0.5068,1.8652-0.5068c0.5459,0,1.0508,0.1074,1.5146,0.3223s0.8389,0.4961,1.124,0.8438
		c0.2842,0.3477,0.4971,0.7988,0.6367,1.3535c0.1406,0.5547,0.2109,1.4063,0.2109,2.5547v7.6523h-1.7227v-7.5781
		c0-0.915-0.0781-1.584-0.2344-2.0059c-0.1563-0.4229-0.4004-0.749-0.7324-0.9805c-0.332-0.2305-0.7168-0.3457-1.1543-0.3457
		c-0.8281,0-1.4883,0.3086-1.9805,0.9268s-0.7383,1.6777-0.7383,3.1787v6.8047H78.7423z"/>
	<path fill="#414042" d="M89.3477,25.4843l1.6875,0.3047c0.0781,0.668,0.3125,1.165,0.7031,1.4912s0.9336,0.4893,1.6289,0.4893
		c0.7578,0,1.3613-0.1816,1.8105-0.5449s0.7559-0.9043,0.9199-1.623c0.1016-0.4375,0.1523-1.3594,0.1523-2.7666
		c-0.375,0.5361-0.7969,0.9395-1.2656,1.2109s-0.9883,0.4072-1.5586,0.4072c-1.2188,0-2.2305-0.5156-3.0352-1.5469
		c-0.9219-1.1875-1.3828-2.7773-1.3828-4.7695c0-1.3359,0.2031-2.5039,0.6094-3.5039s0.9395-1.7344,1.5996-2.2031
		s1.4004-0.7031,2.2207-0.7031c0.6016,0,1.1504,0.1475,1.6465,0.4424s0.9355,0.7373,1.3184,1.3271v-1.4883h1.5938v10.7578
		c0,1.9141-0.1563,3.2793-0.4688,4.0957s-0.8242,1.4609-1.5352,1.9336s-1.5664,0.709-2.5664,0.709
		c-1.3203,0-2.3359-0.3555-3.0469-1.0664S89.3243,26.7421,89.3477,25.4843z M90.7774,18.0077c0,1.6367,0.2705,2.8311,0.8105,3.583
		s1.2012,1.1279,1.9844,1.1279s1.4482-0.3682,1.9961-1.1045s0.8223-1.9072,0.8223-3.5127c0-1.5664-0.2822-2.7314-0.8457-3.4951
		s-1.248-1.1455-2.0547-1.1455c-0.7207,0-1.3525,0.3818-1.8965,1.1455C91.0489,15.37,90.7774,16.5038,90.7774,18.0077z"/>
	<path fill="#414042" d="M112.7852,24.453v-1.8281c-0.3984,0.7031-0.8672,1.2305-1.4063,1.582s-1.1484,0.5273-1.8281,0.5273
		c-0.8047,0-1.4922-0.2168-2.0625-0.6504s-0.9512-0.9824-1.1426-1.6465s-0.2871-1.5703-0.2871-2.7188v-7.7109h1.7227v6.9023
		c0,1.2813,0.0645,2.1387,0.1934,2.5723s0.3672,0.7813,0.7148,1.043s0.7441,0.3926,1.1895,0.3926
		c0.8281,0,1.5078-0.3398,2.0391-1.0195c0.4531-0.5859,0.6797-1.6602,0.6797-3.2227v-6.668h1.7344V24.453H112.7852z"/>
	<path fill="#414042" d="M117.0509,24.453V12.0077h1.5586v1.7578c0.374-0.6836,0.833-1.1943,1.375-1.5322
		s1.1631-0.5068,1.8652-0.5068c0.5459,0,1.0508,0.1074,1.5146,0.3223s0.8389,0.4961,1.124,0.8438
		c0.2842,0.3477,0.4971,0.7988,0.6367,1.3535c0.1406,0.5547,0.2109,1.4063,0.2109,2.5547v7.6523h-1.7227v-7.5781
		c0-0.915-0.0781-1.584-0.2344-2.0059c-0.1563-0.4229-0.4004-0.749-0.7324-0.9805c-0.332-0.2305-0.7168-0.3457-1.1543-0.3457
		c-0.8281,0-1.4883,0.3086-1.9805,0.9268s-0.7383,1.6777-0.7383,3.1787v6.8047H117.0509z"/>
	<path fill="#414042" d="M127.9962,9.6991V7.2733h1.7227v2.4258H127.9962z M127.9962,24.453V12.0077h1.7227V24.453H127.9962z"/>
	<path fill="#414042" d="M136.211,22.5663l0.2344,1.8633c-0.4766,0.125-0.9063,0.1875-1.2891,0.1875
		c-0.6016,0-1.0859-0.1191-1.4531-0.3574s-0.6191-0.5645-0.7559-0.9785s-0.2051-1.2383-0.2051-2.4727v-7.1602h-1.2656v-1.6406
		h1.2656v-3.082l1.7227-1.2656v4.3477h1.7461v1.6406h-1.7461v7.2773c0,0.6719,0.0508,1.1055,0.1523,1.3008
		c0.1484,0.2813,0.4258,0.4219,0.832,0.4219C135.6446,22.6483,135.8985,22.621,136.211,22.5663z"/>
	<path fill="#414042" d="M147.1563,22.5663l0.2344,1.8633c-0.4766,0.125-0.9063,0.1875-1.2891,0.1875
		c-0.6016,0-1.0859-0.1191-1.4531-0.3574s-0.6191-0.5645-0.7559-0.9785s-0.2051-1.2383-0.2051-2.4727v-7.1602h-1.2656v-1.6406
		h1.2656v-3.082l1.7227-1.2656v4.3477h1.7461v1.6406h-1.7461v7.2773c0,0.6719,0.0508,1.1055,0.1523,1.3008
		c0.1484,0.2813,0.4258,0.4219,0.832,0.4219C146.5899,22.6483,146.8438,22.621,147.1563,22.5663z"/>
	<path fill="#414042" d="M148.129,18.2304c0-2.1484,0.4512-3.7695,1.3535-4.8633s2.0449-1.6406,3.4277-1.6406
		c1.3594,0,2.4961,0.5469,3.4102,1.6406s1.3711,2.6719,1.3711,4.7344c0,2.2344-0.4492,3.8984-1.3477,4.9922
		s-2.043,1.6406-3.4336,1.6406c-1.3672,0-2.5059-0.5488-3.416-1.6465S148.129,20.371,148.129,18.2304z M149.8985,18.2245
		c0,1.6113,0.293,2.8105,0.8789,3.5957c0.5859,0.7871,1.3125,1.1797,2.1797,1.1797c0.8125,0,1.5098-0.3965,2.0918-1.1914
		c0.582-0.793,0.873-1.9883,0.873-3.584c0-1.6035-0.293-2.7979-0.8789-3.584s-1.3125-1.1797-2.1797-1.1797
		c-0.8203,0-1.5195,0.3955-2.0977,1.1855S149.8985,16.6288,149.8985,18.2245z"/>
	<path fill="#414042" d="M163.5743,22.5663l0.2344,1.8633c-0.4766,0.125-0.9063,0.1875-1.2891,0.1875
		c-0.6016,0-1.0859-0.1191-1.4531-0.3574s-0.6191-0.5645-0.7559-0.9785s-0.2051-1.2383-0.2051-2.4727v-7.1602h-1.2656v-1.6406
		h1.2656v-3.082l1.7227-1.2656v4.3477h1.7461v1.6406h-1.7461v7.2773c0,0.6719,0.0508,1.1055,0.1523,1.3008
		c0.1484,0.2813,0.4258,0.4219,0.832,0.4219C163.0079,22.6483,163.2618,22.621,163.5743,22.5663z"/>
	<path fill="#414042" d="M171.8477,22.9179c-0.5781,0.6016-1.1797,1.0547-1.8047,1.3594s-1.2734,0.457-1.9453,0.457
		c-1.0625,0-1.9102-0.3203-2.543-0.9609s-0.9492-1.5039-0.9492-2.5898c0-0.7188,0.1484-1.3555,0.4453-1.9102
		s0.7031-0.9883,1.2188-1.3008s1.2969-0.543,2.3438-0.6914c1.4063-0.2061,2.4375-0.4521,3.0938-0.7383l0.0117-0.5391
		c0-0.8516-0.1523-1.4492-0.457-1.793c-0.4297-0.5-1.0898-0.75-1.9805-0.75c-0.8047,0-1.4063,0.167-1.8047,0.501
		c-0.3984,0.333-0.6914,0.96-0.8789,1.8779l-1.6992-0.2813c0.2422-1.3359,0.7324-2.3086,1.4707-2.918s1.7949-0.9141,3.1699-0.9141
		c1.0703,0,1.9102,0.2012,2.5195,0.6035s0.9941,0.9004,1.1543,1.4941s0.2402,1.4609,0.2402,2.6016v2.8125
		c0,1.9688,0.0371,3.209,0.1113,3.7207s0.2207,1.0098,0.4395,1.4941h-1.8047C172.0196,24.0233,171.9024,23.5116,171.8477,22.9179z
		 M171.7071,18.2069c-0.6328,0.3125-1.5742,0.5781-2.8242,0.7969c-0.7266,0.125-1.2344,0.2676-1.5234,0.4277
		s-0.5137,0.3867-0.6738,0.6797s-0.2402,0.6309-0.2402,1.0137c0,0.5938,0.1836,1.0684,0.5508,1.4238s0.875,0.5332,1.5234,0.5332
		c0.6172,0,1.1777-0.1602,1.6816-0.4805s0.8809-0.748,1.1309-1.2832s0.375-1.3145,0.375-2.3379V18.2069z"/>
	<path fill="#414042" d="M176.0899,24.453V7.2733h1.7227V24.453H176.0899z"/>
	<path fill="#414042" d="M179.8517,20.7265l1.7227-0.3281c0.1016,0.8789,0.3779,1.5322,0.8301,1.96s1.0527,0.6416,1.8008,0.6416
		s1.3262-0.1855,1.7363-0.5566c0.4082-0.3711,0.6133-0.8418,0.6133-1.4121c0-0.4922-0.1758-0.875-0.5273-1.1484
		c-0.2422-0.1875-0.8281-0.4219-1.7578-0.7031c-1.3438-0.4141-2.2422-0.7656-2.6953-1.0547s-0.8047-0.6758-1.0547-1.1602
		s-0.375-1.0352-0.375-1.6523c0-1.0625,0.3398-1.9258,1.0195-2.5898s1.6211-0.9961,2.8242-0.9961
		c0.7578,0,1.4238,0.1367,1.998,0.4102s1.0137,0.6406,1.3184,1.1016s0.5156,1.1211,0.6328,1.9805l-1.6875,0.2813
		c-0.1563-1.3594-0.8945-2.0391-2.2148-2.0391c-0.75,0-1.3086,0.1494-1.6758,0.4492s-0.5508,0.6826-0.5508,1.1494
		c0,0.46,0.1758,0.8213,0.5283,1.0859c0.2109,0.1553,0.8369,0.4043,1.8779,0.7471c1.4316,0.4541,2.3584,0.8164,2.7783,1.0859
		c0.4199,0.2705,0.7471,0.6377,0.9805,1.1035s0.3506,1.0195,0.3506,1.6611c0,1.1895-0.377,2.1523-1.1309,2.8877
		c-0.7539,0.7363-1.7832,1.1035-3.0879,1.1035C181.6602,24.7343,180.2423,23.3983,179.8517,20.7265z"/>
</g>
</svg>
