<?xml version="1.0" encoding="utf-8"?>
<!-- Generator: Adobe Illustrator 23.0.2, SVG Export Plug-In . SVG Version: 6.00 Build 0)  -->
<svg version="1.1" id="Layer_1" xmlns="http://www.w3.org/2000/svg" xmlns:xlink="http://www.w3.org/1999/xlink" x="0px" y="0px"
	 width="262.9924px" height="178.0763px" viewBox="0 0 262.9924 178.0763" enable-background="new 0 0 262.9924 178.0763"
	 xml:space="preserve">
<circle fill="#DAA628" stroke="#FFFFFF" stroke-width="2" stroke-miterlimit="10" cx="75.5159" cy="103.2876" r="68.5988"/>
<circle fill="#DAA628" stroke="#FFFFFF" stroke-width="1.5" stroke-miterlimit="10" cx="76.3165" cy="119.046" r="51.9162"/>
<circle fill="#DAA628" stroke="#FFFFFF" stroke-width="1.5" stroke-miterlimit="10" cx="76.0745" cy="140.3007" r="29.6615"/>
<line fill="none" stroke="#808285" stroke-width="1.5" stroke-miterlimit="10" x1="101.4319" y1="61.6888" x2="178.0406" y2="61.6888"/>
<line fill="#58595B" stroke="#808285" stroke-width="1.5" stroke-miterlimit="10" x1="83.7969" y1="129.7238" x2="155.3435" y2="129.7238"/>
<line fill="none" stroke="#808285" stroke-width="1.5" stroke-miterlimit="10" x1="91.5697" y1="95.7063" x2="169.2444" y2="95.7063"/>
<g>
	<path fill="#414042" d="M28.6681,24.453V7.2733h1.8633v7.0547h7.3242V7.2733h1.8633V24.453h-1.8633v-8.0977h-7.3242v8.0977H28.6681
		z"/>
	<path fill="#414042" d="M41.9806,18.2304c0-2.1484,0.4512-3.7695,1.3535-4.8633s2.0449-1.6406,3.4277-1.6406
		c1.3594,0,2.4961,0.5469,3.4102,1.6406s1.3711,2.6719,1.3711,4.7344c0,2.2344-0.4492,3.8984-1.3477,4.9922
		s-2.043,1.6406-3.4336,1.6406c-1.3672,0-2.5059-0.5488-3.416-1.6465S41.9806,20.371,41.9806,18.2304z M43.7501,18.2245
		c0,1.6113,0.293,2.8105,0.8789,3.5957c0.5859,0.7871,1.3125,1.1797,2.1797,1.1797c0.8125,0,1.5098-0.3965,2.0918-1.1914
		c0.582-0.793,0.873-1.9883,0.873-3.584c0-1.6035-0.293-2.7979-0.8789-3.584s-1.3125-1.1797-2.1797-1.1797
		c-0.8203,0-1.5195,0.3955-2.0977,1.1855S43.7501,16.6288,43.7501,18.2245z"/>
	<path fill="#414042" d="M60.2618,24.453v-1.8281c-0.3984,0.7031-0.8672,1.2305-1.4063,1.582s-1.1484,0.5273-1.8281,0.5273
		c-0.8047,0-1.4922-0.2168-2.0625-0.6504s-0.9512-0.9824-1.1426-1.6465s-0.2871-1.5703-0.2871-2.7188v-7.7109h1.7227v6.9023
		c0,1.2813,0.0645,2.1387,0.1934,2.5723s0.3672,0.7813,0.7148,1.043s0.7441,0.3926,1.1895,0.3926
		c0.8281,0,1.5078-0.3398,2.0391-1.0195c0.4531-0.5859,0.6797-1.6602,0.6797-3.2227v-6.668h1.7344V24.453H60.2618z"/>
	<path fill="#414042" d="M63.8595,20.7265l1.7227-0.3281c0.1016,0.8789,0.3779,1.5322,0.8301,1.96s1.0527,0.6416,1.8008,0.6416
		s1.3262-0.1855,1.7363-0.5566c0.4082-0.3711,0.6133-0.8418,0.6133-1.4121c0-0.4922-0.1758-0.875-0.5273-1.1484
		c-0.2422-0.1875-0.8281-0.4219-1.7578-0.7031c-1.3438-0.4141-2.2422-0.7656-2.6953-1.0547s-0.8047-0.6758-1.0547-1.1602
		s-0.375-1.0352-0.375-1.6523c0-1.0625,0.3398-1.9258,1.0195-2.5898s1.6211-0.9961,2.8242-0.9961
		c0.7578,0,1.4238,0.1367,1.998,0.4102s1.0137,0.6406,1.3184,1.1016s0.5156,1.1211,0.6328,1.9805l-1.6875,0.2813
		c-0.1563-1.3594-0.8945-2.0391-2.2148-2.0391c-0.75,0-1.3086,0.1494-1.6758,0.4492s-0.5508,0.6826-0.5508,1.1494
		c0,0.46,0.1758,0.8213,0.5283,1.0859c0.2109,0.1553,0.8369,0.4043,1.8779,0.7471c1.4316,0.4541,2.3584,0.8164,2.7783,1.0859
		c0.4199,0.2705,0.7471,0.6377,0.9805,1.1035s0.3506,1.0195,0.3506,1.6611c0,1.1895-0.377,2.1523-1.1309,2.8877
		c-0.7539,0.7363-1.7832,1.1035-3.0879,1.1035C65.6681,24.7343,64.2501,23.3983,63.8595,20.7265z"/>
	<path fill="#414042" d="M74.3712,9.6991V7.2733h1.7227v2.4258H74.3712z M74.3712,24.453V12.0077h1.7227V24.453H74.3712z"/>
	<path fill="#414042" d="M78.7423,24.453V12.0077h1.5586v1.7578c0.374-0.6836,0.833-1.1943,1.375-1.5322
		s1.1631-0.5068,1.8652-0.5068c0.5459,0,1.0508,0.1074,1.5146,0.3223s0.8389,0.4961,1.124,0.8438
		c0.2842,0.3477,0.4971,0.7988,0.6367,1.3535c0.1406,0.5547,0.2109,1.4063,0.2109,2.5547v7.6523h-1.7227v-7.5781
		c0-0.915-0.0781-1.584-0.2344-2.0059c-0.1563-0.4229-0.4004-0.749-0.7324-0.9805c-0.332-0.2305-0.7168-0.3457-1.1543-0.3457
		c-0.8281,0-1.4883,0.3086-1.9805,0.9268s-0.7383,1.6777-0.7383,3.1787v6.8047H78.7423z"/>
	<path fill="#414042" d="M89.3477,25.4843l1.6875,0.3047c0.0781,0.668,0.3125,1.165,0.7031,1.4912s0.9336,0.4893,1.6289,0.4893
		c0.7578,0,1.3613-0.1816,1.8105-0.5449s0.7559-0.9043,0.9199-1.623c0.1016-0.4375,0.1523-1.3594,0.1523-2.7666
		c-0.375,0.5361-0.7969,0.9395-1.2656,1.2109s-0.9883,0.4072-1.5586,0.4072c-1.2188,0-2.2305-0.5156-3.0352-1.5469
		c-0.9219-1.1875-1.3828-2.7773-1.3828-4.7695c0-1.3359,0.2031-2.5039,0.6094-3.5039s0.9395-1.7344,1.5996-2.2031
		s1.4004-0.7031,2.2207-0.7031c0.6016,0,1.1504,0.1475,1.6465,0.4424s0.9355,0.7373,1.3184,1.3271v-1.4883h1.5938v10.7578
		c0,1.9141-0.1563,3.2793-0.4688,4.0957s-0.8242,1.4609-1.5352,1.9336s-1.5664,0.709-2.5664,0.709
		c-1.3203,0-2.3359-0.3555-3.0469-1.0664S89.3243,26.7421,89.3477,25.4843z M90.7774,18.0077c0,1.6367,0.2705,2.8311,0.8105,3.583
		s1.2012,1.1279,1.9844,1.1279s1.4482-0.3682,1.9961-1.1045s0.8223-1.9072,0.8223-3.5127c0-1.5664-0.2822-2.7314-0.8457-3.4951
		s-1.248-1.1455-2.0547-1.1455c-0.7207,0-1.3525,0.3818-1.8965,1.1455C91.0489,15.37,90.7774,16.5038,90.7774,18.0077z"/>
	<path fill="#414042" d="M112.7852,24.453v-1.8281c-0.3984,0.7031-0.8672,1.2305-1.4063,1.582s-1.1484,0.5273-1.8281,0.5273
		c-0.8047,0-1.4922-0.2168-2.0625-0.6504s-0.9512-0.9824-1.1426-1.6465s-0.2871-1.5703-0.2871-2.7188v-7.7109h1.7227v6.9023
		c0,1.2813,0.0645,2.1387,0.1934,2.5723s0.3672,0.7813,0.7148,1.043s0.7441,0.3926,1.1895,0.3926
		c0.8281,0,1.5078-0.3398,2.0391-1.0195c0.4531-0.5859,0.6797-1.6602,0.6797-3.2227v-6.668h1.7344V24.453H112.7852z"/>
	<path fill="#414042" d="M117.0509,24.453V12.0077h1.5586v1.7578c0.374-0.6836,0.833-1.1943,1.375-1.5322
		s1.1631-0.5068,1.8652-0.5068c0.5459,0,1.0508,0.1074,1.5146,0.3223s0.8389,0.4961,1.124,0.8438
		c0.2842,0.3477,0.4971,0.7988,0.6367,1.3535c0.1406,0.5547,0.2109,1.4063,0.2109,2.5547v7.6523h-1.7227v-7.5781
		c0-0.915-0.0781-1.584-0.2344-2.0059c-0.1563-0.4229-0.4004-0.749-0.7324-0.9805c-0.332-0.2305-0.7168-0.3457-1.1543-0.3457
		c-0.8281,0-1.4883,0.3086-1.9805,0.9268s-0.7383,1.6777-0.7383,3.1787v6.8047H117.0509z"/>
	<path fill="#414042" d="M127.9962,9.6991V7.2733h1.7227v2.4258H127.9962z M127.9962,24.453V12.0077h1.7227V24.453H127.9962z"/>
	<path fill="#414042" d="M136.211,22.5663l0.2344,1.8633c-0.4766,0.125-0.9063,0.1875-1.2891,0.1875
		c-0.6016,0-1.0859-0.1191-1.4531-0.3574s-0.6191-0.5645-0.7559-0.9785s-0.2051-1.2383-0.2051-2.4727v-7.1602h-1.2656v-1.6406
		h1.2656v-3.082l1.7227-1.2656v4.3477h1.7461v1.6406h-1.7461v7.2773c0,0.6719,0.0508,1.1055,0.1523,1.3008
		c0.1484,0.2813,0.4258,0.4219,0.832,0.4219C135.6446,22.6483,135.8985,22.621,136.211,22.5663z"/>
	<path fill="#414042" d="M147.1563,22.5663l0.2344,1.8633c-0.4766,0.125-0.9063,0.1875-1.2891,0.1875
		c-0.6016,0-1.0859-0.1191-1.4531-0.3574s-0.6191-0.5645-0.7559-0.9785s-0.2051-1.2383-0.2051-2.4727v-7.1602h-1.2656v-1.6406
		h1.2656v-3.082l1.7227-1.2656v4.3477h1.7461v1.6406h-1.7461v7.2773c0,0.6719,0.0508,1.1055,0.1523,1.3008
		c0.1484,0.2813,0.4258,0.4219,0.832,0.4219C146.5899,22.6483,146.8438,22.621,147.1563,22.5663z"/>
	<path fill="#414042" d="M148.129,18.2304c0-2.1484,0.4512-3.7695,1.3535-4.8633s2.0449-1.6406,3.4277-1.6406
		c1.3594,0,2.4961,0.5469,3.4102,1.6406s1.3711,2.6719,1.3711,4.7344c0,2.2344-0.4492,3.8984-1.3477,4.9922
		s-2.043,1.6406-3.4336,1.6406c-1.3672,0-2.5059-0.5488-3.416-1.6465S148.129,20.371,148.129,18.2304z M149.8985,18.2245
		c0,1.6113,0.293,2.8105,0.8789,3.5957c0.5859,0.7871,1.3125,1.1797,2.1797,1.1797c0.8125,0,1.5098-0.3965,2.0918-1.1914
		c0.582-0.793,0.873-1.9883,0.873-3.584c0-1.6035-0.293-2.7979-0.8789-3.584s-1.3125-1.1797-2.1797-1.1797
		c-0.8203,0-1.5195,0.3955-2.0977,1.1855S149.8985,16.6288,149.8985,18.2245z"/>
	<path fill="#414042" d="M163.5743,22.5663l0.2344,1.8633c-0.4766,0.125-0.9063,0.1875-1.2891,0.1875
		c-0.6016,0-1.0859-0.1191-1.4531-0.3574s-0.6191-0.5645-0.7559-0.9785s-0.2051-1.2383-0.2051-2.4727v-7.1602h-1.2656v-1.6406
		h1.2656v-3.082l1.7227-1.2656v4.3477h1.7461v1.6406h-1.7461v7.2773c0,0.6719,0.0508,1.1055,0.1523,1.3008
		c0.1484,0.2813,0.4258,0.4219,0.832,0.4219C163.0079,22.6483,163.2618,22.621,163.5743,22.5663z"/>
	<path fill="#414042" d="M171.8477,22.9179c-0.5781,0.6016-1.1797,1.0547-1.8047,1.3594s-1.2734,0.457-1.9453,0.457
		c-1.0625,0-1.9102-0.3203-2.543-0.9609s-0.9492-1.5039-0.9492-2.5898c0-0.7188,0.1484-1.3555,0.4453-1.9102
		s0.7031-0.9883,1.2188-1.3008s1.2969-0.543,2.3438-0.6914c1.4063-0.2061,2.4375-0.4521,3.0938-0.7383l0.0117-0.5391
		c0-0.8516-0.1523-1.4492-0.457-1.793c-0.4297-0.5-1.0898-0.75-1.9805-0.75c-0.8047,0-1.4063,0.167-1.8047,0.501
		c-0.3984,0.333-0.6914,0.96-0.8789,1.8779l-1.6992-0.2813c0.2422-1.3359,0.7324-2.3086,1.4707-2.918s1.7949-0.9141,3.1699-0.9141
		c1.0703,0,1.9102,0.2012,2.5195,0.6035s0.9941,0.9004,1.1543,1.4941s0.2402,1.4609,0.2402,2.6016v2.8125
		c0,1.9688,0.0371,3.209,0.1113,3.7207s0.2207,1.0098,0.4395,1.4941h-1.8047C172.0196,24.0233,171.9024,23.5116,171.8477,22.9179z
		 M171.7071,18.2069c-0.6328,0.3125-1.5742,0.5781-2.8242,0.7969c-0.7266,0.125-1.2344,0.2676-1.5234,0.4277
		s-0.5137,0.3867-0.6738,0.6797s-0.2402,0.6309-0.2402,1.0137c0,0.5938,0.1836,1.0684,0.5508,1.4238s0.875,0.5332,1.5234,0.5332
		c0.6172,0,1.1777-0.1602,1.6816-0.4805s0.8809-0.748,1.1309-1.2832s0.375-1.3145,0.375-2.3379V18.2069z"/>
	<path fill="#414042" d="M176.0899,24.453V7.2733h1.7227V24.453H176.0899z"/>
	<path fill="#414042" d="M179.8517,20.7265l1.7227-0.3281c0.1016,0.8789,0.3779,1.5322,0.8301,1.96s1.0527,0.6416,1.8008,0.6416
		s1.3262-0.1855,1.7363-0.5566c0.4082-0.3711,0.6133-0.8418,0.6133-1.4121c0-0.4922-0.1758-0.875-0.5273-1.1484
		c-0.2422-0.1875-0.8281-0.4219-1.7578-0.7031c-1.3438-0.4141-2.2422-0.7656-2.6953-1.0547s-0.8047-0.6758-1.0547-1.1602
		s-0.375-1.0352-0.375-1.6523c0-1.0625,0.3398-1.9258,1.0195-2.5898s1.6211-0.9961,2.8242-0.9961
		c0.7578,0,1.4238,0.1367,1.998,0.4102s1.0137,0.6406,1.3184,1.1016s0.5156,1.1211,0.6328,1.9805l-1.6875,0.2813
		c-0.1563-1.3594-0.8945-2.0391-2.2148-2.0391c-0.75,0-1.3086,0.1494-1.6758,0.4492s-0.5508,0.6826-0.5508,1.1494
		c0,0.46,0.1758,0.8213,0.5283,1.0859c0.2109,0.1553,0.8369,0.4043,1.8779,0.7471c1.4316,0.4541,2.3584,0.8164,2.7783,1.0859
		c0.4199,0.2705,0.7471,0.6377,0.9805,1.1035s0.3506,1.0195,0.3506,1.6611c0,1.1895-0.377,2.1523-1.1309,2.8877
		c-0.7539,0.7363-1.7832,1.1035-3.0879,1.1035C181.6602,24.7343,180.2423,23.3983,179.8517,20.7265z"/>
</g>
<g>
	<path fill="#414042" d="M192.1658,67.2717v1.8584h-8.54c-0.0215-0.752,0.2061-1.5947,0.6816-2.5264
		c0.4766-0.9307,1.3486-2.0313,2.6162-3.2998c1.4824-1.4756,2.4531-2.6172,2.9111-3.4238s0.6875-1.5576,0.6875-2.2529
		c0-0.8018-0.2344-1.4561-0.7031-1.9619c-0.4697-0.5049-1.0479-0.7578-1.7354-0.7578c-0.7373,0-1.3428,0.2734-1.8154,0.8193
		s-0.709,1.3291-0.709,2.3496l-1.6328-0.2041c0.1143-1.5107,0.543-2.6484,1.2832-3.4102c0.7422-0.7637,1.7178-1.1445,2.9277-1.1445
		c1.3174,0,2.3145,0.4434,2.9922,1.3311c0.6758,0.8877,1.0146,1.8975,1.0146,3.0283c0,1.002-0.2646,1.9629-0.7949,2.8828
		c-0.5303,0.9189-1.5361,2.1465-3.0186,3.6797c-0.9453,0.9678-1.5557,1.6279-1.832,1.9785
		c-0.2754,0.3516-0.499,0.7021-0.6709,1.0537H192.1658z"/>
	<path fill="#414042" d="M202.0594,57.2277l-1.5791,0.1504c-0.1504-0.8057-0.3721-1.3799-0.665-1.7217
		c-0.4209-0.499-0.9287-0.749-1.5215-0.749c-0.9219,0-1.6621,0.5732-2.2197,1.7188c-0.4785,0.9883-0.7217,2.4492-0.7285,4.3828
		c0.3652-0.6875,0.8232-1.209,1.375-1.5625c0.5518-0.3555,1.1348-0.5322,1.751-0.5322c1.0244,0,1.918,0.4639,2.6797,1.3916
		c0.7637,0.9268,1.1445,2.168,1.1445,3.7217c0,1.0527-0.1914,2.0068-0.5742,2.8623c-0.3838,0.8564-0.876,1.4883-1.4775,1.8965
		s-1.2637,0.6123-1.9873,0.6123c-1.3037,0-2.3779-0.5869-3.2227-1.7617s-1.2676-3.1328-1.2676-5.876
		c0-3.0439,0.4326-5.2119,1.2979-6.5039c0.8652-1.293,1.9746-1.9395,3.3262-1.9395c0.9795,0,1.8008,0.334,2.4619,1.002
		C201.5145,54.9865,201.9168,55.9562,202.0594,57.2277z M195.5926,64.0275c0,1.1387,0.2686,2.0537,0.8057,2.7451
		c0.5371,0.6904,1.1602,1.0361,1.8691,1.0361c0.623,0,1.1797-0.3262,1.6709-0.9775c0.4902-0.6514,0.7354-1.5469,0.7354-2.6855
		c0-1.1172-0.2432-1.9834-0.7305-2.5996s-1.0811-0.9238-1.7832-0.9238c-0.6875,0-1.2871,0.3066-1.7998,0.918
		C195.8484,62.1535,195.5926,62.9816,195.5926,64.0275z"/>
	<path fill="#414042" d="M203.8748,61.3635c0-2.6426,0.3564-4.6445,1.0693-6.0049c0.7119-1.3604,1.7627-2.041,3.1523-2.041
		c1.2314,0,2.2021,0.5518,2.9111,1.6543c0.8594,1.332,1.2891,3.4629,1.2891,6.3916c0,2.6279-0.3545,4.624-1.0635,5.9893
		c-0.709,1.3633-1.7617,2.0459-3.1582,2.0459c-1.2314,0-2.2402-0.6016-3.0234-1.8047
		C204.2664,66.3908,203.8748,64.3136,203.8748,61.3635z M205.4969,61.3586c0,2.5586,0.2461,4.2734,0.7373,5.1436
		c0.4912,0.8711,1.1211,1.3066,1.8896,1.3066c0.7246,0,1.3311-0.4404,1.8184-1.3223c0.4883-0.8818,0.7324-2.5908,0.7324-5.1279
		c0-2.5664-0.2461-4.2832-0.7373-5.1504s-1.1289-1.3008-1.9111-1.3008c-0.7178,0-1.3184,0.4414-1.8027,1.3223
		C205.7391,57.1115,205.4969,58.8205,205.4969,61.3586z"/>
	<path fill="#414042" d="M214.8211,69.1301v-2.2021h1.8047v2.2021c0,0.8525-0.125,1.5195-0.376,2.0039
		c-0.251,0.4824-0.6162,0.8535-1.0957,1.1113l-0.4404-0.8271c0.3223-0.1719,0.5654-0.4277,0.7305-0.7686
		c0.165-0.3398,0.2539-0.8467,0.2686-1.5195H214.8211z"/>
	<path fill="#414042" d="M219.032,55.4445v-1.8584h8.3467V55.09c-1.2461,1.6182-2.3418,3.7256-3.2871,6.3213
		c-0.9453,2.5967-1.4893,5.1689-1.6328,7.7187h-1.6221c0.0215-1.3174,0.2305-2.8535,0.627-4.6084
		c0.3965-1.7549,0.9414-3.4268,1.6338-5.0166c0.6934-1.5898,1.4395-2.9434,2.2402-4.0605H219.032z"/>
	<path fill="#414042" d="M228.9578,65.0051l1.665-0.1719c0.1289,1.0029,0.4209,1.749,0.875,2.2402
		c0.4551,0.4902,0.9834,0.7354,1.585,0.7354c0.752,0,1.4004-0.3457,1.9443-1.0381s0.8164-1.6367,0.8164-2.835
		c0-1.126-0.2637-1.999-0.7891-2.6191c-0.5273-0.6201-1.1875-0.9307-1.9824-0.9307c-0.4795,0-0.9297,0.1348-1.3477,0.4043
		c-0.4199,0.2686-0.751,0.6436-0.9941,1.125l-1.4932-0.2363l1.2568-8.0928h6.4131v1.8477h-5.1533l-0.6914,4.2373
		c0.7666-0.6621,1.5801-0.9932,2.4395-0.9932c1.0811,0,2.0215,0.4609,2.8193,1.3818c0.7988,0.9209,1.1982,2.1631,1.1982,3.7256
		c0,1.541-0.3994,2.8623-1.1973,3.9629c-0.7988,1.1006-1.8711,1.6504-3.2178,1.6504c-1.1172,0-2.0605-0.3887-2.8311-1.165
		C229.5037,67.4562,229.0652,66.3801,228.9578,65.0051z"/>
	<path fill="#414042" d="M244.0721,69.1301v-3.7705h-5.5967v-1.7725l5.8857-10.2051h1.3008v10.2051h1.751v1.7725h-1.751v3.7705
		H244.0721z M244.0721,63.5871v-7.1006l-4.0352,7.1006H244.0721z"/>
</g>
<g>
	<path fill="#414042" d="M176.5721,98.8674l1.665-0.1719c0.1289,1.0029,0.4209,1.749,0.875,2.2402
		c0.4551,0.4902,0.9834,0.7354,1.585,0.7354c0.752,0,1.4004-0.3457,1.9443-1.0381s0.8164-1.6367,0.8164-2.835
		c0-1.126-0.2637-1.999-0.7891-2.6191c-0.5273-0.6201-1.1875-0.9307-1.9824-0.9307c-0.4795,0-0.9297,0.1348-1.3477,0.4043
		c-0.4199,0.2686-0.751,0.6436-0.9941,1.125l-1.4932-0.2363l1.2568-8.0928h6.4131v1.8477h-5.1533l-0.6914,4.2373
		c0.7666-0.6621,1.5801-0.9932,2.4395-0.9932c1.0811,0,2.0215,0.4609,2.8193,1.3818c0.7988,0.9209,1.1982,2.1631,1.1982,3.7256
		c0,1.541-0.3994,2.8623-1.1973,3.9629c-0.7988,1.1006-1.8711,1.6504-3.2178,1.6504c-1.1172,0-2.0605-0.3887-2.8311-1.165
		C177.118,101.3185,176.6795,100.2424,176.5721,98.8674z"/>
	<path fill="#414042" d="M186.6053,98.8244l1.5791-0.2578c0.3301,2.0693,1.166,3.1045,2.5078,3.1045
		c0.7246,0,1.3525-0.3066,1.8838-0.9199s0.7969-1.4082,0.7969-2.3838c0-0.918-0.2432-1.6563-0.7305-2.2158
		s-1.085-0.8398-1.7939-0.8398c-0.3008,0-0.6729,0.0713-1.1172,0.2148l0.1826-1.6973l0.248,0.0215
		c0.7832,0,1.4199-0.2393,1.9082-0.7178c0.4893-0.4795,0.7334-1.1191,0.7334-1.9189c0-0.7363-0.2051-1.3281-0.6143-1.7744
		s-0.9082-0.6699-1.4961-0.6699c-0.6104,0-1.126,0.2344-1.5459,0.7031c-0.4199,0.4697-0.6865,1.1807-0.8018,2.1328l-1.5791-0.3438
		c0.2002-1.3467,0.6514-2.3633,1.3535-3.0508s1.5508-1.0313,2.5459-1.0313c1.0459,0,1.9336,0.3867,2.6641,1.1592
		c0.7305,0.7734,1.0957,1.7471,1.0957,2.9199c0,0.7158-0.1553,1.3496-0.4648,1.9004s-0.7422,0.9844-1.2979,1.2988
		c0.5137,0.1436,0.9385,0.3789,1.2734,0.708c0.335,0.3301,0.6064,0.7695,0.8125,1.3213c0.207,0.5508,0.3105,1.166,0.3105,1.8457
		c0,1.4463-0.4258,2.6289-1.2783,3.5488c-0.8525,0.9189-1.873,1.3789-3.0615,1.3789c-1.1025,0-2.0371-0.4014-2.8037-1.2031
		S186.7127,100.1779,186.6053,98.8244z"/>
	<path fill="#414042" d="M197.5516,102.9924v-2.2021h1.8047v2.2021c0,0.8525-0.125,1.5195-0.376,2.0039
		c-0.251,0.4824-0.6162,0.8535-1.0957,1.1113l-0.4404-0.8271c0.3223-0.1719,0.5654-0.4277,0.7305-0.7686
		c0.165-0.3398,0.2539-0.8467,0.2686-1.5195H197.5516z"/>
	<path fill="#414042" d="M210.0125,101.134v1.8584h-8.54c-0.0215-0.752,0.2061-1.5947,0.6816-2.5264
		c0.4766-0.9307,1.3486-2.0313,2.6162-3.2998c1.4824-1.4756,2.4531-2.6172,2.9111-3.4238s0.6875-1.5576,0.6875-2.2529
		c0-0.8018-0.2344-1.4561-0.7031-1.9619c-0.4697-0.5049-1.0479-0.7578-1.7354-0.7578c-0.7373,0-1.3428,0.2734-1.8154,0.8193
		s-0.709,1.3291-0.709,2.3496l-1.6328-0.2041c0.1143-1.5107,0.543-2.6484,1.2832-3.4102c0.7422-0.7637,1.7178-1.1445,2.9277-1.1445
		c1.3174,0,2.3145,0.4434,2.9922,1.3311c0.6758,0.8877,1.0146,1.8975,1.0146,3.0283c0,1.002-0.2646,1.9629-0.7949,2.8828
		c-0.5303,0.9189-1.5361,2.1465-3.0186,3.6797c-0.9453,0.9678-1.5557,1.6279-1.832,1.9785
		c-0.2754,0.3516-0.499,0.7021-0.6709,1.0537H210.0125z"/>
	<path fill="#414042" d="M216.7693,102.9924v-3.7705h-5.5967v-1.7725l5.8857-10.2051h1.3008v10.2051h1.751v1.7725h-1.751v3.7705
		H216.7693z M216.7693,97.4494v-7.1006l-4.0352,7.1006H216.7693z"/>
	<path fill="#414042" d="M224.1697,94.4465c-0.6338-0.2861-1.1123-0.6953-1.4365-1.2285c-0.3232-0.5332-0.4854-1.1973-0.4854-1.9912
		c0-1.1953,0.3516-2.1689,1.0547-2.9199c0.7041-0.751,1.5869-1.127,2.6514-1.127c1.0713,0,1.9619,0.3828,2.6729,1.1484
		c0.71,0.7656,1.0654,1.7529,1.0654,2.9629c0,0.7578-0.1572,1.4004-0.4727,1.9268c-0.3145,0.5254-0.791,0.9355-1.4277,1.2285
		c0.7803,0.3086,1.3799,0.8066,1.7988,1.4941c0.4189,0.6885,0.6279,1.541,0.6279,2.5586c0,1.4043-0.4063,2.5498-1.2178,3.4346
		s-1.8184,1.3271-3.0205,1.3271c-1.2158,0-2.2295-0.4424-3.041-1.3271s-1.2178-2.0479-1.2178-3.4883
		c0-1.0537,0.2168-1.9229,0.6494-2.6064C222.8045,95.1545,223.4041,94.6906,224.1697,94.4465z M223.3436,98.4484
		c0,0.9668,0.2588,1.7451,0.7773,2.3369c0.5176,0.5898,1.1377,0.8857,1.8594,0.8857c0.7295,0,1.3477-0.2861,1.8555-0.8594
		c0.5068-0.5732,0.7607-1.3389,0.7607-2.2988c0-0.9668-0.2607-1.7451-0.7822-2.3369c-0.5225-0.5898-1.1475-0.8857-1.877-0.8857
		c-0.7217,0-1.334,0.2939-1.8379,0.8809S223.3436,97.5177,223.3436,98.4484z M223.8699,91.1711
		c0,0.7715,0.2031,1.3857,0.6104,1.8438c0.4072,0.457,0.9072,0.6855,1.5,0.6855c0.5791,0,1.0723-0.2246,1.4795-0.6748
		s0.6104-1.0332,0.6104-1.748c0-0.7354-0.209-1.3379-0.627-1.8057s-0.9121-0.7021-1.4844-0.7021
		c-0.5713,0-1.0625,0.2285-1.4727,0.6855C224.075,89.9133,223.8699,90.4845,223.8699,91.1711z"/>
</g>
<g>
	<path fill="#414042" d="M162.5281,132.6867l1.5791-0.2578c0.3301,2.0693,1.166,3.1045,2.5078,3.1045
		c0.7246,0,1.3525-0.3066,1.8838-0.9199s0.7969-1.4082,0.7969-2.3838c0-0.918-0.2432-1.6563-0.7305-2.2158
		s-1.085-0.8398-1.7939-0.8398c-0.3008,0-0.6729,0.0713-1.1172,0.2148l0.1826-1.6973l0.248,0.0215
		c0.7832,0,1.4199-0.2393,1.9082-0.7178c0.4893-0.4795,0.7334-1.1191,0.7334-1.9189c0-0.7363-0.2051-1.3281-0.6143-1.7744
		s-0.9082-0.6699-1.4961-0.6699c-0.6104,0-1.126,0.2344-1.5459,0.7031c-0.4199,0.4697-0.6865,1.1807-0.8018,2.1328l-1.5791-0.3438
		c0.2002-1.3467,0.6514-2.3633,1.3535-3.0508s1.5508-1.0313,2.5459-1.0313c1.0459,0,1.9336,0.3867,2.6641,1.1592
		c0.7305,0.7734,1.0957,1.7471,1.0957,2.9199c0,0.7158-0.1553,1.3496-0.4648,1.9004s-0.7422,0.9844-1.2979,1.2988
		c0.5137,0.1436,0.9385,0.3789,1.2734,0.708c0.335,0.3301,0.6064,0.7695,0.8125,1.3213c0.207,0.5508,0.3105,1.166,0.3105,1.8457
		c0,1.4463-0.4258,2.6289-1.2783,3.5488c-0.8525,0.9189-1.873,1.3789-3.0615,1.3789c-1.1025,0-2.0371-0.4014-2.8037-1.2031
		S162.6356,134.0402,162.5281,132.6867z"/>
	<path fill="#414042" d="M173.4744,136.8547v-2.2021h1.8047v2.2021c0,0.8525-0.125,1.5195-0.376,2.0039
		c-0.251,0.4824-0.6162,0.8535-1.0957,1.1113l-0.4404-0.8271c0.3223-0.1719,0.5654-0.4277,0.7305-0.7686
		c0.165-0.3398,0.2539-0.8467,0.2686-1.5195H173.4744z"/>
	<path fill="#414042" d="M177.5779,132.6867l1.5791-0.2578c0.3301,2.0693,1.166,3.1045,2.5078,3.1045
		c0.7246,0,1.3525-0.3066,1.8838-0.9199s0.7969-1.4082,0.7969-2.3838c0-0.918-0.2432-1.6563-0.7305-2.2158
		s-1.085-0.8398-1.7939-0.8398c-0.3008,0-0.6729,0.0713-1.1172,0.2148l0.1826-1.6973l0.248,0.0215
		c0.7832,0,1.4199-0.2393,1.9082-0.7178c0.4893-0.4795,0.7334-1.1191,0.7334-1.9189c0-0.7363-0.2051-1.3281-0.6143-1.7744
		s-0.9082-0.6699-1.4961-0.6699c-0.6104,0-1.126,0.2344-1.5459,0.7031c-0.4199,0.4697-0.6865,1.1807-0.8018,2.1328l-1.5791-0.3438
		c0.2002-1.3467,0.6514-2.3633,1.3535-3.0508s1.5508-1.0313,2.5459-1.0313c1.0459,0,1.9336,0.3867,2.6641,1.1592
		c0.7305,0.7734,1.0957,1.7471,1.0957,2.9199c0,0.7158-0.1553,1.3496-0.4648,1.9004s-0.7422,0.9844-1.2979,1.2988
		c0.5137,0.1436,0.9385,0.3789,1.2734,0.708c0.335,0.3301,0.6064,0.7695,0.8125,1.3213c0.207,0.5508,0.3105,1.166,0.3105,1.8457
		c0,1.4463-0.4258,2.6289-1.2783,3.5488c-0.8525,0.9189-1.873,1.3789-3.0615,1.3789c-1.1025,0-2.0371-0.4014-2.8037-1.2031
		S177.6854,134.0402,177.5779,132.6867z"/>
	<path fill="#414042" d="M192.6922,136.8547v-3.7705h-5.5967v-1.7725l5.8857-10.2051h1.3008v10.2051h1.751v1.7725h-1.751v3.7705
		H192.6922z M192.6922,131.3117v-7.1006l-4.0352,7.1006H192.6922z"/>
	<path fill="#414042" d="M197.6443,132.7297l1.665-0.1719c0.1289,1.0029,0.4209,1.749,0.875,2.2402
		c0.4551,0.4902,0.9834,0.7354,1.585,0.7354c0.752,0,1.4004-0.3457,1.9443-1.0381s0.8164-1.6367,0.8164-2.835
		c0-1.126-0.2637-1.999-0.7891-2.6191c-0.5273-0.6201-1.1875-0.9307-1.9824-0.9307c-0.4795,0-0.9297,0.1348-1.3477,0.4043
		c-0.4199,0.2686-0.751,0.6436-0.9941,1.125l-1.4932-0.2363l1.2568-8.0928h6.4131v1.8477h-5.1533l-0.6914,4.2373
		c0.7666-0.6621,1.5801-0.9932,2.4395-0.9932c1.0811,0,2.0215,0.4609,2.8193,1.3818c0.7988,0.9209,1.1982,2.1631,1.1982,3.7256
		c0,1.541-0.3994,2.8623-1.1973,3.9629c-0.7988,1.1006-1.8711,1.6504-3.2178,1.6504c-1.1172,0-2.0605-0.3887-2.8311-1.165
		C198.1902,135.1808,197.7518,134.1047,197.6443,132.7297z"/>
</g>
</svg>
