<?xml version="1.0" encoding="utf-8"?>
<!-- Generator: Adobe Illustrator 23.0.2, SVG Export Plug-In . SVG Version: 6.00 Build 0)  -->
<svg version="1.1" id="Layer_1" xmlns="http://www.w3.org/2000/svg" xmlns:xlink="http://www.w3.org/1999/xlink" x="0px" y="0px"
	 width="262.9924px" height="178.0763px" viewBox="0 0 262.9924 178.0763" enable-background="new 0 0 262.9924 178.0763"
	 xml:space="preserve">
<circle fill="#DAA628" stroke="#FFFFFF" stroke-width="2" stroke-miterlimit="10" cx="75.5159" cy="103.2876" r="68.5988"/>
<circle fill="#DAA628" stroke="#FFFFFF" stroke-width="1.5" stroke-miterlimit="10" cx="76.3165" cy="119.046" r="51.9162"/>
<circle fill="#DAA628" stroke="#FFFFFF" stroke-width="1.5" stroke-miterlimit="10" cx="76.0745" cy="140.3007" r="29.6615"/>
<line fill="none" stroke="#58595B" stroke-width="1.5" stroke-miterlimit="10" x1="102.4319" y1="62.6888" x2="179.0406" y2="62.6888"/>
<line fill="#58595B" stroke="#58595B" stroke-width="1.5" stroke-miterlimit="10" x1="83.7969" y1="129.7238" x2="155.3435" y2="129.7238"/>
<g>
	<path fill="#414042" d="M194.6205,67.6787v2.9428h-9.1102c0.0977-1.1115,0.3965-2.1686,0.8964-3.1711s1.4714-2.3189,2.9146-3.9491
		c1.1425-1.2994,1.8453-2.178,2.1084-2.6365c0.3909-0.668,0.5863-1.3398,0.5863-2.0163c0-0.7207-0.1616-1.2656-0.4848-1.633
		c-0.3232-0.3683-0.7479-0.5525-1.2741-0.5525c-1.15,0-1.7702,0.8607-1.8604,2.582l-2.582-0.3157
		c0.1578-1.6837,0.6258-2.9202,1.4037-3.7095s1.8134-1.1839,3.1063-1.1839c1.4206,0,2.4918,0.4623,3.2134,1.3859
		c0.7216,0.9236,1.0824,1.9825,1.0824,3.1767c0,0.6765-0.0921,1.3314-0.2762,1.9656c-0.1842,0.6352-0.4679,1.2731-0.8513,1.9158
		c-0.3833,0.6417-1.0223,1.462-1.9167,2.4608c-0.8344,0.9396-1.3624,1.5588-1.5841,1.8594s-0.4003,0.5929-0.5356,0.8785H194.6205z"
		/>
	<path fill="#414042" d="M205.1739,58.14l-2.5143,0.3382c-0.1203-1.2252-0.6145-1.8378-1.4817-1.8378
		c-0.5656,0-1.0345,0.3082-1.4084,0.9245c-0.373,0.6164-0.6089,1.8604-0.7066,3.732c0.3242-0.466,0.685-0.8156,1.0843-1.0486
		c0.3993-0.233,0.84-0.3495,1.321-0.3495c1.0617,0,1.9882,0.4942,2.7793,1.4808c0.7902,0.9875,1.1858,2.3001,1.1858,3.9369
		c0,1.742-0.4181,3.1091-1.2534,4.1003c-0.8353,0.9913-1.8698,1.4864-3.1044,1.4864c-1.3549,0-2.4777-0.6446-3.3693-1.9318
		c-0.8917-1.2891-1.338-3.4238-1.338-6.4061c0-3.0273,0.4632-5.2053,1.3887-6.5348s2.115-1.9947,3.5676-1.9947
		c1.0007,0,1.8453,0.3392,2.5341,1.0176C204.5472,55.7319,204.986,56.7607,205.1739,58.14z M199.2883,65.0572
		c0,1.0429,0.1945,1.8406,0.5825,2.3922s0.8315,0.8268,1.3286,0.8268c0.483,0,0.8842-0.2283,1.2045-0.6859
		c0.3204-0.4585,0.4811-1.2083,0.4811-2.2512c0-1.0805-0.1738-1.8679-0.5205-2.364c-0.3467-0.4942-0.7761-0.7423-1.2891-0.7423
		c-0.498,0-0.9198,0.2368-1.2666,0.7094C199.4612,63.4149,199.2883,64.1195,199.2883,65.0572z"/>
	<path fill="#414042" d="M211.2962,54.0359c1.3154,0,2.379,0.6258,3.1908,1.8763c0.8118,1.2506,1.2177,3.4379,1.2177,6.563
		c0,3.1175-0.4059,5.3011-1.2177,6.5517c-0.8118,1.2515-1.8716,1.8763-3.1796,1.8763c-1.3154,0-2.379-0.6192-3.1908-1.8594
		c-0.8118-1.2393-1.2177-3.4398-1.2177-6.6024c0-3.1025,0.4059-5.2786,1.2177-6.5292
		C208.9285,54.6617,209.9883,54.0359,211.2962,54.0359z M211.3018,56.663c-0.513,0-0.9217,0.3382-1.2271,1.0138
		c-0.3063,0.6756-0.4585,2.2757-0.4585,4.7985s0.1522,4.121,0.4585,4.7928c0.3054,0.6718,0.7141,1.0082,1.2271,1.0082
		c0.5205,0,0.9311-0.3382,1.2327-1.0138s0.4529-2.271,0.4529-4.7872c0-2.5228-0.1513-4.1229-0.4529-4.7985
		S211.8224,56.663,211.3018,56.663z"/>
	<path fill="#414042" d="M217.9259,67.4532h2.5932v2.2663c0,1.2854-0.1503,2.24-0.451,2.8639
		c-0.3683,0.7742-0.9847,1.3492-1.8491,1.7251l-0.5074-1.3079c0.5111-0.2105,0.8794-0.4942,1.1049-0.8513
		c0.2255-0.357,0.3458-0.8663,0.3608-1.5278h-1.2515V67.4532z"/>
	<path fill="#414042" d="M222.6952,57.2606v-2.9428h8.8847v2.3001c-0.7291,0.8795-1.4676,2.1291-2.2155,3.7489
		c-0.7479,1.6198-1.3267,3.3562-1.7363,5.209c-0.4097,1.8529-0.6145,3.5347-0.6145,5.0456h-2.5031
		c0.0601-2.3452,0.451-4.6866,1.1726-7.0243c0.7216-2.3377,1.695-4.4499,2.9202-6.3365H222.6952z"/>
	<path fill="#414042" d="M233.2721,66.3708l2.5932-0.3382c0.0677,0.7216,0.2894,1.2891,0.6652,1.7025
		c0.3758,0.4134,0.7892,0.6201,1.2402,0.6201c0.5337,0,0.9922-0.264,1.3755-0.793s0.575-1.3417,0.575-2.4373
		c0-1.0354-0.1898-1.8002-0.5713-2.2954c-0.3796-0.4952-0.8625-0.7432-1.4507-0.7432c-0.746,0-1.415,0.4021-2.0107,1.2064
		l-2.1122-0.3721l1.3304-8.6028h6.8665v2.9653h-4.884l-0.4228,2.8084c0.5863-0.3542,1.182-0.5309,1.7833-0.5309
		c1.0692,0,1.975,0.4209,2.721,1.2628c0.9415,1.0749,1.4113,2.4918,1.4113,4.2507c0,1.4507-0.4003,2.7849-1.2008,4.0026
		s-1.9449,1.8265-3.4332,1.8265c-1.2027,0-2.208-0.3927-3.0161-1.1782S233.4375,67.8215,233.2721,66.3708z"/>
	<path fill="#414042" d="M248.8542,70.6215v-3.3261h-5.5473v-2.7737l5.8743-10.4857h2.1873v10.4745h1.68v2.7849h-1.68v3.3261
		H248.8542z M248.8542,64.5104v-5.6431l-3.1119,5.6431H248.8542z"/>
</g>
<g>
	<path fill="#414042" d="M163.2444,132.7984l2.5143-0.3721c0.0677,0.778,0.2828,1.3727,0.6445,1.7843
		c0.3617,0.4115,0.7874,0.6173,1.2778,0.6173c0.5356,0,0.9875-0.2443,1.3568-0.7329c0.3693-0.4886,0.5544-1.1651,0.5544-2.0295
		c0-0.8043-0.1776-1.4357-0.5318-1.8942c-0.3552-0.4585-0.7846-0.6878-1.2901-0.6878c-0.3326,0-0.7282,0.0789-1.1886,0.2368
		l0.2819-2.582c0.6727,0.015,1.2055-0.1644,1.5982-0.5393c0.3852-0.3749,0.5778-0.9039,0.5778-1.586
		c0-0.5694-0.14-1.0148-0.4191-1.338c-0.2791-0.3213-0.637-0.4829-1.0749-0.4829c-0.4369,0-0.8165,0.186-1.1369,0.5581
		c-0.3204,0.3721-0.5111,0.9227-0.5713,1.6518l-2.4016-0.4961c0.248-1.5108,0.7338-2.6083,1.4563-3.2923
		c0.7225-0.684,1.6339-1.026,2.7323-1.026c1.2346,0,2.2146,0.4388,2.9409,1.3173c0.7263,0.8785,1.0899,1.85,1.0899,2.9155
		c0,0.7207-0.1635,1.3699-0.4905,1.9478c-0.327,0.5778-0.8174,1.0852-1.4714,1.5202c0.7592,0.2029,1.3774,0.6502,1.8547,1.3417
		c0.4773,0.6915,0.716,1.556,0.716,2.5932c0,1.5108-0.4501,2.7605-1.3492,3.7489c-0.8992,0.9884-1.9694,1.4827-3.2115,1.4827
		c-1.1895,0-2.1958-0.4162-3.0198-1.2487C163.8598,135.3738,163.3797,134.2379,163.2444,132.7984z"/>
	<path fill="#414042" d="M174.3615,134.0049h2.5933v2.2663c0,1.2853-0.1503,2.24-0.451,2.8638
		c-0.3683,0.7742-0.9847,1.3492-1.8491,1.7251l-0.5074-1.3079c0.5111-0.2105,0.8795-0.4942,1.1049-0.8513
		s0.3458-0.8663,0.3608-1.5278h-1.2515V134.0049z"/>
	<path fill="#414042" d="M179.0406,132.7984l2.5143-0.3721c0.0677,0.778,0.2828,1.3727,0.6446,1.7843
		c0.3617,0.4115,0.7874,0.6173,1.2778,0.6173c0.5356,0,0.9875-0.2443,1.3568-0.7329c0.3693-0.4886,0.5544-1.1651,0.5544-2.0295
		c0-0.8043-0.1776-1.4357-0.5318-1.8942c-0.3552-0.4585-0.7845-0.6878-1.2901-0.6878c-0.3326,0-0.7282,0.0789-1.1886,0.2368
		l0.2819-2.582c0.6727,0.015,1.2055-0.1644,1.5982-0.5393c0.3852-0.3749,0.5778-0.9039,0.5778-1.586
		c0-0.5694-0.14-1.0148-0.4191-1.338c-0.2791-0.3213-0.637-0.4829-1.0749-0.4829c-0.4369,0-0.8165,0.186-1.1369,0.5581
		c-0.3204,0.3721-0.5111,0.9227-0.5713,1.6518l-2.4016-0.4961c0.248-1.5108,0.7338-2.6083,1.4564-3.2923
		c0.7225-0.684,1.6339-1.026,2.7323-1.026c1.2346,0,2.2146,0.4388,2.9409,1.3173c0.7263,0.8785,1.0899,1.85,1.0899,2.9155
		c0,0.7207-0.1635,1.3699-0.4905,1.9478c-0.327,0.5778-0.8174,1.0852-1.4714,1.5202c0.7592,0.2029,1.3774,0.6502,1.8547,1.3417
		c0.4773,0.6915,0.716,1.556,0.716,2.5932c0,1.5108-0.4501,2.7605-1.3492,3.7489c-0.8992,0.9884-1.9694,1.4827-3.2115,1.4827
		c-1.1895,0-2.1958-0.4162-3.0198-1.2487C179.6561,135.3738,179.1759,134.2379,179.0406,132.7984z"/>
	<path fill="#414042" d="M194.758,137.1731v-3.3261h-5.5473v-2.7736l5.8743-10.4857h2.1873v10.4745h1.68v2.7849h-1.68v3.3261
		H194.758z M194.758,131.0621v-5.6431l-3.1119,5.6431H194.758z"/>
	<path fill="#414042" d="M200.2376,132.9225l2.5932-0.3382c0.0677,0.7216,0.2894,1.2891,0.6652,1.7025
		c0.3758,0.4134,0.7893,0.6201,1.2402,0.6201c0.5337,0,0.9922-0.264,1.3755-0.793c0.3834-0.529,0.575-1.3417,0.575-2.4373
		c0-1.0354-0.1898-1.8002-0.5703-2.2954c-0.3805-0.4951-0.8644-0.7432-1.4516-0.7432c-0.7451,0-1.416,0.4021-2.0107,1.2064
		l-2.1122-0.3721l1.3304-8.6028h6.8665v2.9653h-4.8839l-0.4228,2.8084c0.5872-0.3542,1.182-0.5309,1.7843-0.5309
		c1.0683,0,1.975,0.4209,2.7201,1.2628c0.9405,1.0749,1.4113,2.4918,1.4113,4.2507c0,1.4507-0.4003,2.7849-1.2008,4.0026
		c-0.8005,1.2177-1.9449,1.8265-3.4332,1.8265c-1.2027,0-2.208-0.3927-3.0161-1.1782S200.403,134.3732,200.2376,132.9225z"/>
</g>
<line fill="none" stroke="#58595B" stroke-width="1.5" stroke-miterlimit="10" x1="91.5697" y1="95.7063" x2="169.2444" y2="95.7063"/>
<g>
	<path fill="#414042" d="M177.4148,99.1466l2.5932-0.3382c0.0677,0.7216,0.2894,1.2891,0.6652,1.7025
		c0.3758,0.4134,0.7893,0.6201,1.2402,0.6201c0.5337,0,0.9922-0.264,1.3755-0.793s0.575-1.3417,0.575-2.4373
		c0-1.0354-0.1898-1.8002-0.5703-2.2954c-0.3805-0.4952-0.8644-0.7432-1.4517-0.7432c-0.7451,0-1.4159,0.4021-2.0107,1.2064
		l-2.1122-0.3721l1.3304-8.6028h6.8665v2.9653h-4.8839l-0.4228,2.8084c0.5872-0.3542,1.182-0.5309,1.7843-0.5309
		c1.0683,0,1.975,0.4209,2.7201,1.2628c0.9405,1.0749,1.4113,2.4918,1.4113,4.2507c0,1.4507-0.4003,2.7849-1.2008,4.0026
		c-0.8005,1.2177-1.9449,1.8266-3.4332,1.8266c-1.2027,0-2.208-0.3927-3.0161-1.1782S177.5801,100.5973,177.4148,99.1466z"/>
	<path fill="#414042" d="M187.8103,99.0226l2.5143-0.3721c0.0677,0.778,0.2828,1.3727,0.6446,1.7843s0.7874,0.6173,1.2778,0.6173
		c0.5356,0,0.9875-0.2443,1.3568-0.7329c0.3693-0.4886,0.5544-1.1651,0.5544-2.0295c0-0.8043-0.1776-1.4357-0.5318-1.8942
		c-0.3552-0.4585-0.7845-0.6878-1.2901-0.6878c-0.3326,0-0.7282,0.0789-1.1886,0.2368l0.2819-2.582
		c0.6727,0.015,1.2055-0.1644,1.5982-0.5393c0.3852-0.3749,0.5778-0.9039,0.5778-1.586c0-0.5694-0.14-1.0147-0.4191-1.338
		c-0.2791-0.3213-0.637-0.4829-1.0749-0.4829c-0.4369,0-0.8165,0.186-1.1369,0.5581c-0.3204,0.3721-0.5111,0.9227-0.5713,1.6518
		l-2.4016-0.4961c0.248-1.5108,0.7338-2.6083,1.4564-3.2923c0.7225-0.684,1.6339-1.026,2.7323-1.026
		c1.2346,0,2.2146,0.4388,2.9409,1.3173c0.7263,0.8785,1.0899,1.85,1.0899,2.9155c0,0.7207-0.1635,1.3699-0.4905,1.9478
		c-0.327,0.5778-0.8174,1.0852-1.4714,1.5202c0.7592,0.2029,1.3774,0.6502,1.8547,1.3417c0.4773,0.6915,0.716,1.5559,0.716,2.5932
		c0,1.5108-0.4501,2.7605-1.3492,3.7489s-1.9694,1.4827-3.2115,1.4827c-1.1895,0-2.1958-0.4162-3.0198-1.2487
		C188.4257,101.598,187.9456,100.462,187.8103,99.0226z"/>
	<path fill="#414042" d="M198.9274,100.229h2.5933v2.2663c0,1.2853-0.1503,2.24-0.451,2.8638
		c-0.3683,0.7742-0.9847,1.3492-1.8491,1.7251l-0.5074-1.3079c0.5111-0.2105,0.8795-0.4942,1.1049-0.8513
		s0.3458-0.8663,0.3608-1.5278h-1.2515V100.229z"/>
	<path fill="#414042" d="M212.48,100.4545v2.9428h-9.1102c0.0977-1.1115,0.3965-2.1686,0.8964-3.1711
		c0.4999-1.0025,1.4714-2.3189,2.9146-3.9491c1.1425-1.2994,1.8454-2.178,2.1084-2.6365c0.3909-0.668,0.5863-1.3398,0.5863-2.0163
		c0-0.7207-0.1616-1.2656-0.4848-1.633c-0.3232-0.3683-0.7479-0.5525-1.2741-0.5525c-1.1501,0-1.7702,0.8607-1.8604,2.582
		l-2.582-0.3157c0.1579-1.6837,0.6258-2.9202,1.4037-3.7095c0.778-0.7892,1.8134-1.1839,3.1063-1.1839
		c1.4207,0,2.4918,0.4623,3.2134,1.3859s1.0824,1.9825,1.0824,3.1767c0,0.6765-0.0921,1.3314-0.2762,1.9656
		c-0.1842,0.6352-0.4679,1.2731-0.8513,1.9158c-0.3833,0.6417-1.0223,1.462-1.9167,2.4608
		c-0.8344,0.9396-1.3624,1.5588-1.5841,1.8594s-0.4003,0.5929-0.5356,0.8785H212.48z"/>
	<path fill="#414042" d="M219.3239,103.3973v-3.3261h-5.5473v-2.7736l5.8743-10.4857h2.1873v10.4745h1.68v2.7849h-1.68v3.3261
		H219.3239z M219.3239,97.2862v-5.6431l-3.1119,5.6431H219.3239z"/>
	<path fill="#414042" d="M226.9937,94.4731c-0.6389-0.3307-1.1162-0.7799-1.4376-1.3502s-0.482-1.2562-0.482-2.0586
		c0-1.2976,0.3674-2.3311,1.104-3.0997s1.7288-1.1529,2.9766-1.1529c1.3229,0,2.3302,0.4106,3.0217,1.2318
		s1.0373,1.8209,1.0373,2.9982c0,0.8024-0.1654,1.4977-0.4998,2.0868c-0.3345,0.5882-0.793,1.0364-1.3718,1.3445
		c0.7742,0.3749,1.353,0.9029,1.7363,1.5832c0.3834,0.6793,0.575,1.5155,0.575,2.5068c0,1.0223-0.1879,1.9233-0.5675,2.7051
		c-0.3796,0.7808-0.9058,1.3784-1.5747,1.7908c-0.669,0.4134-1.4207,0.6201-2.255,0.6201c-1.3079,0-2.3865-0.4529-3.2397-1.3577
		c-0.8541-0.9048-1.2806-2.1244-1.2806-3.6569c0-0.9913,0.1945-1.8444,0.5835-2.5575
		C225.7084,95.393,226.2646,94.848,226.9937,94.4731z M227.2831,98.363c0,0.8851,0.1879,1.5682,0.5675,2.0483
		c0.3758,0.4801,0.8268,0.7197,1.3568,0.7197c0.5262,0,0.9697-0.2283,1.3267-0.6859c0.3608-0.4576,0.5374-1.1444,0.5374-2.0596
		c0-0.7874-0.1804-1.4103-0.5487-1.8679c-0.3645-0.4566-0.8156-0.6859-1.3492-0.6859c-0.5299,0-0.9772,0.2311-1.3417,0.6915
		C227.4673,96.9846,227.2831,97.5982,227.2831,98.363z M227.5312,91.2879c0,0.6427,0.1541,1.136,0.4585,1.4798
		s0.6878,0.5158,1.1538,0.5158c0.4736,0,0.8644-0.1719,1.1726-0.5158c0.3082-0.3439,0.4623-0.8372,0.4623-1.4798
		c0-0.6201-0.1503-1.1021-0.4548-1.446s-0.6878-0.5158-1.1463-0.5158c-0.4811,0-0.8757,0.1738-1.1839,0.5215
		C227.6853,90.1952,227.5312,90.6753,227.5312,91.2879z"/>
</g>
<g>
	<path fill="#414042" d="M25.8416,24.2062V7.0265h2.8359v6.7617h5.5898V7.0265h2.8359v17.1797h-2.8359v-7.5117h-5.5898v7.5117
		H25.8416z"/>
	<path fill="#414042" d="M39.3885,17.8078c0-1.2217,0.2422-2.333,0.7266-3.334c0.4844-1.002,1.1172-1.7539,1.8984-2.2539
		c0.7813-0.502,1.6602-0.752,2.6367-0.752c1.6406,0,2.9297,0.6436,3.8672,1.9316c0.9375,1.2871,1.4063,2.792,1.4063,4.5137
		c0,1.2832-0.2441,2.4414-0.7324,3.4746s-1.1289,1.8105-1.9219,2.3311c-0.793,0.5195-1.6621,0.7803-2.6074,0.7803
		c-1.5156,0-2.7734-0.5791-3.7734-1.7373S39.3885,19.9523,39.3885,17.8078z M42.1541,17.9836c0,1.2617,0.2471,2.2158,0.7402,2.8623
		s1.0879,0.9697,1.7852,0.9697c0.6816,0,1.2646-0.3252,1.75-0.9756s0.7285-1.6104,0.7285-2.8799
		c0-1.2383-0.2471-2.1826-0.7402-2.833s-1.084-0.9756-1.7734-0.9756c-0.6816,0-1.2666,0.3252-1.7559,0.9756
		C42.3983,15.7775,42.1541,16.7297,42.1541,17.9836z"/>
	<path fill="#414042" d="M58.7361,24.2062v-1.8613c-0.374,0.6748-0.8652,1.2031-1.4736,1.583
		c-0.6084,0.3809-1.2441,0.5713-1.9072,0.5713c-0.6709,0-1.2715-0.1758-1.8018-0.5273c-0.5303-0.3525-0.9258-0.8525-1.1875-1.502
		c-0.2607-0.6484-0.3916-1.5908-0.3916-2.8262v-7.8828h2.707v5.7188c0,1.6328,0.041,2.6699,0.123,3.1113
		c0.0811,0.4414,0.2627,0.7832,0.543,1.0254s0.6191,0.3633,1.0166,0.3633c0.4512,0,0.8682-0.1582,1.25-0.4746
		s0.6328-0.7227,0.7539-1.2188c0.1201-0.4961,0.1807-1.5879,0.1807-3.2754v-5.25h2.707v12.4453H58.7361z"/>
	<path fill="#414042" d="M63.119,20.6672l2.707-0.5039c0.2344,1.3047,0.9609,1.957,2.1797,1.957c0.6484,0,1.1328-0.125,1.4531-0.375
		s0.4805-0.5742,0.4805-0.9736c0-0.2734-0.0703-0.4883-0.2109-0.6445c-0.1484-0.1563-0.4424-0.293-0.8818-0.4102
		c-2.2168-0.5889-3.626-1.1504-4.2275-1.6826c-0.75-0.666-1.125-1.5781-1.125-2.7373s0.3672-2.0869,1.1016-2.7842
		c0.7344-0.6963,1.8008-1.0449,3.1992-1.0449c1.3359,0,2.3516,0.2598,3.0469,0.7793s1.1836,1.3574,1.4648,2.5137l-2.543,0.5742
		c-0.2266-1-0.8672-1.5-1.9219-1.5c-0.6641,0-1.1367,0.0957-1.418,0.2881c-0.2813,0.1914-0.4219,0.4404-0.4219,0.7451
		c0,0.2744,0.1289,0.501,0.3867,0.6816c0.2568,0.1875,1.0576,0.4717,2.4004,0.8516c1.5068,0.4268,2.5303,0.9414,3.0703,1.543
		c0.5322,0.6025,0.7988,1.4033,0.7988,2.4043c0,1.2031-0.4121,2.1963-1.2363,2.9775c-0.8242,0.7822-1.9629,1.1729-3.416,1.1729
		c-1.3203,0-2.3984-0.3262-3.2344-0.9785C63.9354,22.8683,63.3846,21.9172,63.119,20.6672z"/>
	<path fill="#414042" d="M75.0135,10.0734V7.0265h2.707v3.0469H75.0135z M75.0135,24.2062V11.7609h2.707v12.4453H75.0135z"/>
	<path fill="#414042" d="M89.7674,24.2062h-2.707v-6.3594c0-1.2744-0.0508-2.123-0.1523-2.5449
		c-0.1016-0.4229-0.291-0.7471-0.5684-0.9746c-0.2773-0.2266-0.5918-0.3398-0.9434-0.3398c-0.4531,0-0.8633,0.1465-1.2305,0.4404
		c-0.3672,0.293-0.625,0.6982-0.7734,1.2139c-0.1484,0.5166-0.2227,1.4902-0.2227,2.9209v5.6436h-2.707V11.7609h2.5078v1.8164
		c0.4453-0.7031,0.9473-1.2305,1.5059-1.582s1.1777-0.5273,1.8574-0.5273c0.7891,0,1.4551,0.2051,1.998,0.6162
		c0.543,0.4102,0.918,0.9385,1.125,1.583c0.207,0.6455,0.3105,1.5781,0.3105,2.7979V24.2062z"/>
	<path fill="#414042" d="M92.2518,25.0265l3.0938,0.457c0.0469,0.4531,0.1895,0.7754,0.4277,0.9668s0.6152,0.2871,1.1309,0.2871
		c0.5938,0,1.0742-0.0977,1.4414-0.293c0.2578-0.1406,0.457-0.375,0.5977-0.7031s0.2109-0.9063,0.2109-1.7344v-1.8164
		c-0.4063,0.6719-0.8633,1.1758-1.3711,1.5117s-1.0703,0.5039-1.6875,0.5039c-1.1328,0-2.0859-0.5117-2.8594-1.5371
		c-0.8906-1.1729-1.3359-2.7598-1.3359-4.7617c0-2.127,0.4199-3.7314,1.2598-4.8145s1.8574-1.625,3.0527-1.625
		c0.6328,0,1.209,0.1699,1.7285,0.5098s0.9824,0.8496,1.3887,1.5293v-1.7461h2.5313v11.168c0,1.7891-0.1641,3.0859-0.4922,3.8906
		s-0.834,1.4121-1.5176,1.8223s-1.6309,0.6152-2.8418,0.6152c-1.1172,0-2.0117-0.1484-2.6836-0.4453s-1.1855-0.7402-1.541-1.3301
		s-0.5332-1.2715-0.5332-2.0449V25.0265z M94.6658,17.7199c0,1.3301,0.2129,2.3008,0.6387,2.9102
		c0.4258,0.6113,0.9395,0.916,1.541,0.916c0.6484,0,1.2031-0.3086,1.6641-0.9277c0.4609-0.6172,0.6914-1.5566,0.6914-2.8164
		c0-1.2988-0.2207-2.2588-0.6621-2.8809s-0.9863-0.9336-1.6348-0.9336c-0.6406,0-1.1738,0.3057-1.5996,0.916
		S94.6658,16.4523,94.6658,17.7199z"/>
	<path fill="#414042" d="M116.6971,24.2062v-1.8613c-0.374,0.6748-0.8652,1.2031-1.4736,1.583
		c-0.6084,0.3809-1.2441,0.5713-1.9072,0.5713c-0.6709,0-1.2715-0.1758-1.8018-0.5273c-0.5303-0.3525-0.9258-0.8525-1.1875-1.502
		c-0.2607-0.6484-0.3916-1.5908-0.3916-2.8262v-7.8828h2.707v5.7188c0,1.6328,0.041,2.6699,0.123,3.1113
		c0.0811,0.4414,0.2627,0.7832,0.543,1.0254s0.6191,0.3633,1.0166,0.3633c0.4512,0,0.8682-0.1582,1.25-0.4746
		s0.6328-0.7227,0.7539-1.2188c0.1201-0.4961,0.1807-1.5879,0.1807-3.2754v-5.25h2.707v12.4453H116.6971z"/>
	<path fill="#414042" d="M131.3104,24.2062h-2.707v-6.3594c0-1.2744-0.0508-2.123-0.1523-2.5449
		c-0.1016-0.4229-0.291-0.7471-0.5684-0.9746c-0.2773-0.2266-0.5918-0.3398-0.9434-0.3398c-0.4531,0-0.8633,0.1465-1.2305,0.4404
		c-0.3672,0.293-0.625,0.6982-0.7734,1.2139c-0.1484,0.5166-0.2227,1.4902-0.2227,2.9209v5.6436h-2.707V11.7609h2.5078v1.8164
		c0.4453-0.7031,0.9473-1.2305,1.5059-1.582s1.1777-0.5273,1.8574-0.5273c0.7891,0,1.4551,0.2051,1.998,0.6162
		c0.543,0.4102,0.918,0.9385,1.125,1.583c0.207,0.6455,0.3105,1.5781,0.3105,2.7979V24.2062z"/>
	<path fill="#414042" d="M134.0526,10.0734V7.0265h2.707v3.0469H134.0526z M134.0526,24.2062V11.7609h2.707v12.4453H134.0526z"/>
	<path fill="#414042" d="M144.1893,11.7609v2.625h-1.8398v5.0234c0,1.0879,0.0273,1.7178,0.082,1.8896
		c0.1094,0.3135,0.332,0.4697,0.668,0.4697c0.25,0,0.6094-0.1055,1.0781-0.3164l0.2344,2.5547
		c-0.625,0.3281-1.332,0.4922-2.1211,0.4922c-0.6875,0-1.2383-0.1641-1.6523-0.4932c-0.4141-0.3281-0.6914-0.8008-0.832-1.4189
		c-0.1094-0.4541-0.1641-1.377-0.1641-2.7695v-5.4316h-1.2422v-2.625h1.2422V9.2883l2.707-1.9219v4.3945H144.1893z"/>
	<path fill="#414042" d="M156.2127,11.7609v2.625h-1.8398v5.0234c0,1.0879,0.0273,1.7178,0.082,1.8896
		c0.1094,0.3135,0.332,0.4697,0.668,0.4697c0.25,0,0.6094-0.1055,1.0781-0.3164l0.2344,2.5547
		c-0.625,0.3281-1.332,0.4922-2.1211,0.4922c-0.6875,0-1.2383-0.1641-1.6523-0.4932c-0.4141-0.3281-0.6914-0.8008-0.832-1.4189
		c-0.1094-0.4541-0.1641-1.377-0.1641-2.7695v-5.4316h-1.2422v-2.625h1.2422V9.2883l2.707-1.9219v4.3945H156.2127z"/>
	<path fill="#414042" d="M157.4666,17.8078c0-1.2217,0.2422-2.333,0.7266-3.334c0.4844-1.002,1.1172-1.7539,1.8984-2.2539
		c0.7813-0.502,1.6602-0.752,2.6367-0.752c1.6406,0,2.9297,0.6436,3.8672,1.9316c0.9375,1.2871,1.4063,2.792,1.4063,4.5137
		c0,1.2832-0.2441,2.4414-0.7324,3.4746s-1.1289,1.8105-1.9219,2.3311c-0.793,0.5195-1.6621,0.7803-2.6074,0.7803
		c-1.5156,0-2.7734-0.5791-3.7734-1.7373S157.4666,19.9523,157.4666,17.8078z M160.2322,17.9836
		c0,1.2617,0.2471,2.2158,0.7402,2.8623s1.0879,0.9697,1.7852,0.9697c0.6816,0,1.2646-0.3252,1.75-0.9756
		s0.7285-1.6104,0.7285-2.8799c0-1.2383-0.2471-2.1826-0.7402-2.833s-1.084-0.9756-1.7734-0.9756
		c-0.6816,0-1.2666,0.3252-1.7559,0.9756C160.4764,15.7775,160.2322,16.7297,160.2322,17.9836z"/>
	<path fill="#414042" d="M174.7869,11.7609v2.625h-1.8398v5.0234c0,1.0879,0.0273,1.7178,0.082,1.8896
		c0.1094,0.3135,0.332,0.4697,0.668,0.4697c0.25,0,0.6094-0.1055,1.0781-0.3164l0.2344,2.5547
		c-0.625,0.3281-1.332,0.4922-2.1211,0.4922c-0.6875,0-1.2383-0.1641-1.6523-0.4932c-0.4141-0.3281-0.6914-0.8008-0.832-1.4189
		c-0.1094-0.4541-0.1641-1.377-0.1641-2.7695v-5.4316h-1.2422v-2.625h1.2422V9.2883l2.707-1.9219v4.3945H174.7869z"/>
	<path fill="#414042" d="M178.6893,15.5461l-2.4492-0.5391c0.2969-1.2578,0.7871-2.1621,1.4707-2.7129s1.666-0.8262,2.9473-0.8262
		c1.1406,0,2.0117,0.1602,2.6133,0.4814c0.6016,0.3203,1.0313,0.7559,1.2891,1.3076c0.2578,0.5508,0.3867,1.5537,0.3867,3.0078
		l-0.0234,3.8477c0,1.0791,0.043,1.8828,0.1289,2.4102c0.0859,0.5283,0.2461,1.0898,0.4805,1.6836h-2.6719l-0.3516-1.3594
		c-0.4609,0.5469-0.9551,0.959-1.4824,1.2363s-1.0879,0.416-1.6816,0.416c-0.9922,0-1.8047-0.334-2.4375-1.0029
		s-0.9492-1.5596-0.9492-2.6699c0-0.7041,0.1289-1.3184,0.3867-1.8428c0.2578-0.5234,0.6211-0.9424,1.0898-1.2559
		c0.4688-0.3125,1.2188-0.5898,2.25-0.833c1.25-0.2891,2.1211-0.5596,2.6133-0.8096c0-0.6914-0.0488-1.1445-0.1465-1.3613
		c-0.0977-0.2158-0.2773-0.3926-0.5391-0.5303s-0.6309-0.2061-1.1074-0.2061c-0.4844,0-0.8652,0.1094-1.1426,0.3281
		S178.8611,14.9445,178.6893,15.5461z M182.2986,18.2297c-0.3438,0.1406-0.8789,0.3057-1.6055,0.4941
		c-0.8359,0.2188-1.3828,0.4619-1.6406,0.7285s-0.3867,0.6113-0.3867,1.0342c0,0.4775,0.1426,0.8799,0.4277,1.2041
		c0.2852,0.3262,0.6426,0.4883,1.0723,0.4883c0.3828,0,0.7617-0.1309,1.1367-0.3936s0.6348-0.5742,0.7793-0.9346
		s0.2168-1.0146,0.2168-1.9629V18.2297z"/>
	<path fill="#414042" d="M187.619,24.2062V7.0265h2.707v17.1797H187.619z"/>
	<path fill="#414042" d="M192.1424,20.6672l2.707-0.5039c0.2344,1.3047,0.9609,1.957,2.1797,1.957
		c0.6484,0,1.1328-0.125,1.4531-0.375s0.4805-0.5742,0.4805-0.9736c0-0.2734-0.0703-0.4883-0.2109-0.6445
		c-0.1484-0.1563-0.4424-0.293-0.8818-0.4102c-2.2168-0.5889-3.626-1.1504-4.2275-1.6826c-0.75-0.666-1.125-1.5781-1.125-2.7373
		s0.3672-2.0869,1.1016-2.7842c0.7344-0.6963,1.8008-1.0449,3.1992-1.0449c1.3359,0,2.3516,0.2598,3.0469,0.7793
		s1.1836,1.3574,1.4648,2.5137l-2.543,0.5742c-0.2266-1-0.8672-1.5-1.9219-1.5c-0.6641,0-1.1367,0.0957-1.418,0.2881
		c-0.2813,0.1914-0.4219,0.4404-0.4219,0.7451c0,0.2744,0.1289,0.501,0.3867,0.6816c0.2568,0.1875,1.0576,0.4717,2.4004,0.8516
		c1.5068,0.4268,2.5303,0.9414,3.0703,1.543c0.5322,0.6025,0.7988,1.4033,0.7988,2.4043c0,1.2031-0.4121,2.1963-1.2363,2.9775
		c-0.8242,0.7822-1.9629,1.1729-3.416,1.1729c-1.3203,0-2.3984-0.3262-3.2344-0.9785S192.408,21.9172,192.1424,20.6672z"/>
</g>
</svg>
